<svg width="48" height="47" viewBox="0 0 48 47" fill="none" xmlns="http://www.w3.org/2000/svg">
<path d="M44.3673 11.6566C42.2759 8.08894 39.4391 5.26418 35.8561 3.18179C32.2724 1.09952 28.3603 0.0585938 24.1169 0.0585938C19.8738 0.0585938 15.9606 1.09952 12.3776 3.18179C8.79433 5.26386 5.9575 8.08862 3.86612 11.6566C1.77462 15.2248 0.729248 19.1214 0.729248 23.3461C0.729248 27.5709 1.77494 31.4669 3.8658 35.0353C5.95708 38.603 8.79391 41.4278 12.3771 43.5103C15.9606 45.5925 19.8735 46.6335 24.1165 46.6335C28.3594 46.6335 32.2727 45.5925 35.856 43.5103C39.439 41.4285 42.2757 38.603 44.3669 35.0353C46.4578 31.4672 47.503 27.5707 47.503 23.3461C47.5031 19.121 46.4578 15.2243 44.3673 11.6566ZM24.1166 3.45474C29.151 3.45474 33.5464 5.1123 37.302 8.42731L36.9213 8.9576C36.7691 9.17022 36.3884 9.57911 35.7796 10.1859C35.1707 10.7921 34.5058 11.3686 33.7852 11.9143C33.0639 12.4602 32.085 13.0817 30.8462 13.7791C29.6077 14.4766 28.2882 15.0884 26.8873 15.614C24.5528 11.328 22.056 7.46699 19.3964 4.0307C21.0005 3.64666 22.5737 3.45474 24.1166 3.45474ZM8.46465 11.0042C10.4134 8.55869 12.7883 6.67841 15.5902 5.36465C18.1074 8.70005 20.584 12.5209 23.0203 16.8265C16.8488 18.4437 10.6977 19.2524 4.56666 19.252C5.21664 16.1998 6.51587 13.4502 8.46465 11.0042ZM5.47988 30.5178C4.5865 28.2438 4.13991 25.853 4.13991 23.3461C4.13991 23.0629 4.15036 22.8506 4.17042 22.7093C11.5198 22.7093 18.3514 21.7695 24.665 19.8892C25.3148 21.1424 25.8528 22.2644 26.2791 23.2552C26.1969 23.2955 26.0659 23.3408 25.8831 23.3914C25.6997 23.442 25.5681 23.477 25.4862 23.4975L24.3597 23.8917C23.588 24.1748 22.5777 24.66 21.3296 25.347C20.0813 26.035 18.7567 26.8532 17.3558 27.8035C15.9549 28.754 14.5084 30.0123 13.0165 31.5795C11.5243 33.146 10.2707 34.8284 9.25564 36.6275C7.63153 34.8284 6.37305 32.7913 5.47988 30.5178ZM24.1166 43.2377C19.3659 43.2377 15.123 41.7214 11.3875 38.6894L11.8443 39.0231C12.5547 37.4662 13.6001 35.9701 14.9809 34.5352C16.3615 33.1002 17.6912 31.9424 18.9701 31.0628C20.2491 30.184 21.6396 29.3553 23.1421 28.5761C24.6443 27.7983 25.669 27.3026 26.2177 27.091C26.7659 26.8788 27.2024 26.7116 27.5272 26.5901L27.5878 26.5597H27.6491C29.638 31.7548 31.0598 36.7887 31.9121 41.6604C29.3947 42.7121 26.7966 43.2374 24.1166 43.2377ZM40.9268 34.0954C39.4244 36.4103 37.5461 38.326 35.2933 39.8416C34.4603 35.1923 33.1617 30.4514 31.395 25.6204C35.435 24.993 39.5865 25.2867 43.8498 26.4991C43.403 29.2484 42.4285 31.781 40.9268 34.0954ZM43.7885 23.0732C43.5855 23.0331 43.3314 22.9872 43.027 22.937C42.7226 22.8867 42.3518 22.8258 41.9152 22.755C41.4793 22.6843 40.9913 22.6188 40.4538 22.558C39.9157 22.4974 39.3423 22.4419 38.7327 22.3914C38.1239 22.3406 37.4741 22.3006 36.7842 22.27C36.0932 22.2398 35.3932 22.2245 34.6825 22.2245C33.9726 22.2245 33.2258 22.245 32.4447 22.2852C31.6633 22.325 30.9073 22.3966 30.1765 22.4975C30.1152 22.3963 30.0393 22.2294 29.948 21.9968C29.8568 21.7646 29.7902 21.5874 29.7509 21.4661C29.3647 20.6171 28.9179 19.6568 28.4098 18.5857C29.8107 18.0193 31.1459 17.3676 32.4154 16.6296C33.6838 15.8916 34.6982 15.235 35.4599 14.6589C36.2214 14.0822 36.942 13.4707 37.6219 12.824C38.3023 12.1772 38.7433 11.7277 38.947 11.4749C39.1503 11.2217 39.343 10.9742 39.5255 10.732L39.5561 10.7014C42.52 14.2997 44.0331 18.4435 44.0932 23.1338L43.7885 23.0732Z" fill="#F1F1F1"/>
</svg>
