<svg width="33" height="33" viewBox="0 0 33 33" fill="none" xmlns="http://www.w3.org/2000/svg">
<g clip-path="url(#clip0_1_510)">
<path d="M27.9356 6.17585C25.8318 5.2271 23.5768 4.52585 21.2187 4.1271C21.1977 4.12307 21.1759 4.12567 21.1565 4.13454C21.137 4.14341 21.1208 4.15811 21.1101 4.1766C20.8213 4.68398 20.4996 5.34535 20.2741 5.86785C17.7731 5.49418 15.2304 5.49418 12.7294 5.86785C12.4783 5.28879 12.195 4.72416 11.8811 4.1766C11.8704 4.15788 11.8543 4.14285 11.8349 4.13351C11.8155 4.12418 11.7937 4.12098 11.7724 4.12435C9.41568 4.5231 7.16068 5.22435 5.05556 6.17448C5.03745 6.18207 5.02209 6.19503 5.01156 6.2116C0.732559 12.5022 -0.440316 18.6375 0.135809 24.6957C0.137412 24.7106 0.142018 24.7249 0.149346 24.7379C0.156674 24.7509 0.166571 24.7623 0.178434 24.7714C2.67597 26.5897 5.46165 27.9749 8.41881 28.8689C8.43942 28.8752 8.46147 28.8752 8.48208 28.8688C8.50268 28.8624 8.52088 28.85 8.53431 28.8331C9.17065 27.9821 9.73454 27.0792 10.2201 26.134C10.2268 26.1211 10.2307 26.1068 10.2314 26.0923C10.2322 26.0777 10.2298 26.0632 10.2245 26.0496C10.2192 26.0361 10.211 26.0238 10.2005 26.0137C10.19 26.0036 10.1774 25.9958 10.1637 25.991C9.27544 25.6565 8.4148 25.2528 7.58968 24.7837C7.57486 24.7753 7.56236 24.7633 7.55333 24.7488C7.54429 24.7343 7.53898 24.7178 7.53789 24.7008C7.5368 24.6837 7.53996 24.6667 7.54708 24.6512C7.5542 24.6356 7.56506 24.6221 7.57868 24.6119C7.75193 24.484 7.92518 24.3506 8.09018 24.2172C8.10504 24.2052 8.12293 24.1976 8.14186 24.1952C8.1608 24.1927 8.18004 24.1956 8.19743 24.2035C13.5971 26.629 19.4449 26.629 24.7813 24.2035C24.7988 24.1952 24.8182 24.1919 24.8374 24.1941C24.8566 24.1963 24.8748 24.2038 24.8899 24.2159C25.0549 24.3506 25.2268 24.484 25.4014 24.6119C25.4152 24.6219 25.4262 24.6352 25.4336 24.6506C25.4409 24.666 25.4443 24.683 25.4435 24.7C25.4427 24.717 25.4377 24.7336 25.4289 24.7482C25.4201 24.7628 25.4078 24.775 25.3932 24.7837C24.5709 25.2567 23.7157 25.6569 22.8178 25.9896C22.804 25.9946 22.7915 26.0025 22.781 26.0127C22.7705 26.023 22.7623 26.0354 22.7569 26.049C22.7516 26.0627 22.7492 26.0773 22.75 26.092C22.7508 26.1066 22.7547 26.121 22.7614 26.134C23.2564 27.0786 23.8229 27.9779 24.4458 28.8317C24.4588 28.8493 24.4768 28.8623 24.4975 28.8692C24.5181 28.8761 24.5404 28.8765 24.5613 28.8702C27.5235 27.9787 30.3138 26.5929 32.8141 24.7714C32.8263 24.7628 32.8365 24.7518 32.8441 24.739C32.8517 24.7262 32.8564 24.7119 32.8581 24.6971C33.5456 17.6929 31.7058 11.6071 27.9782 6.21435C27.969 6.19683 27.9539 6.18317 27.9356 6.17585ZM11.0272 21.0066C9.40193 21.0066 8.06131 19.5367 8.06131 17.7341C8.06131 15.9301 9.37581 14.4616 11.0272 14.4616C12.6909 14.4616 14.0192 15.9425 13.9931 17.7341C13.9931 19.5381 12.6786 21.0066 11.0272 21.0066ZM21.9928 21.0066C20.3662 21.0066 19.0269 19.5367 19.0269 17.7341C19.0269 15.9301 20.3401 14.4616 21.9928 14.4616C23.6566 14.4616 24.9848 15.9425 24.9587 17.7341C24.9587 19.5381 23.6579 21.0066 21.9928 21.0066Z" fill="#E4ECF7"/>
</g>
<defs>
<clipPath id="clip0_1_510">
<rect width="33" height="33" fill="white"/>
</clipPath>
</defs>
</svg>
