<svg width="29" height="41" viewBox="0 0 29 41" fill="none" xmlns="http://www.w3.org/2000/svg">
<path fill-rule="evenodd" clip-rule="evenodd" d="M3.21227 8.03874C3.21227 5.31742 5.48064 3.06581 8.32765 3.06581H13.443V13.0111H8.32751L8.269 13.0113C5.44955 12.9807 3.21227 10.7413 3.21227 8.03874ZM3.98146 14.32C1.93582 12.9581 0.583755 10.6604 0.583755 8.03874C0.583755 3.82518 4.07633 0.448486 8.32765 0.448486H13.4458H16.0715H21.1897C25.441 0.448486 28.9336 3.82518 28.9336 8.03874C28.9336 10.6604 27.5815 12.9581 25.5358 14.3201C27.5815 15.682 28.9336 17.9797 28.9336 20.6014C28.9336 24.8149 25.441 28.1916 21.1897 28.1916C19.2345 28.1916 17.4397 27.4774 16.0714 26.2959V28.1916V33.1654C16.0714 37.3789 12.5788 40.7556 8.32751 40.7556C4.0762 40.7556 0.583618 37.3789 0.583618 33.1654C0.583618 30.5432 1.93617 28.2452 3.98243 26.8834C1.93617 25.5215 0.583618 23.2235 0.583618 20.6014C0.583618 17.9797 1.93574 15.6819 3.98146 14.32ZM21.2483 13.0113C21.2288 13.0112 21.2093 13.0111 21.1897 13.0111C21.1589 13.0111 21.1281 13.0113 21.0973 13.0117H16.0743V3.06581H21.1897C24.0367 3.06581 26.3051 5.31742 26.3051 8.03874C26.3051 10.7414 24.0678 12.9807 21.2483 13.0113ZM21.114 15.629C18.3026 15.6685 16.0743 17.9042 16.0743 20.6014C16.0743 23.3227 18.3427 25.5743 21.1897 25.5743C24.0367 25.5743 26.3051 23.3227 26.3051 20.6014C26.3051 17.8988 24.0678 15.6594 21.2483 15.6288C21.2288 15.6289 21.2093 15.629 21.1897 15.629H21.114ZM8.26892 15.6288C5.44944 15.6594 3.21213 17.8988 3.21213 20.6014C3.21213 23.3227 5.4805 25.5743 8.32751 25.5743H13.4429V15.629H8.32765L8.26892 15.6288ZM8.32751 28.1924C5.48051 28.1924 3.21213 30.4441 3.21213 33.1654C3.21213 35.8867 5.48051 38.1383 8.32751 38.1383C11.1745 38.1383 13.4429 35.8867 13.4429 33.1654V28.1924H8.32751Z" fill="white"/>
</svg>
