<svg width="47" height="47" viewBox="0 0 47 47" fill="none" xmlns="http://www.w3.org/2000/svg">
<path d="M23.387 0.0585938C29.7483 0.0585938 30.5434 0.0585938 33.0224 0.198319C35.5015 0.291469 37.2321 0.710643 38.7289 1.26954C40.2256 1.87502 41.5353 2.66679 42.845 3.97089C44.1546 5.22841 44.9498 6.53251 45.5579 8.06949C46.1191 9.55988 46.5401 11.2366 46.6337 13.7516C46.7272 16.2201 46.774 17.0119 46.774 23.3461C46.774 29.6803 46.7272 30.472 46.6337 32.9405C46.5401 35.409 46.1191 37.0857 45.5579 38.5761C44.9498 40.113 44.1546 41.4171 42.845 42.7212C41.5353 44.0253 40.2256 44.8171 38.7289 45.4226C37.2321 45.9815 35.5015 46.3541 33.0224 46.4938C30.5434 46.587 29.7483 46.6335 23.387 46.6335C17.0257 46.6335 16.2306 46.587 13.7516 46.4938C11.2725 46.3541 9.54189 45.9815 8.0919 45.4226C6.54836 44.8171 5.23869 44.0253 3.92901 42.7212C2.61934 41.4171 1.82419 40.113 1.21612 38.5761C0.654836 37.0857 0.280644 35.409 0.140322 32.9405C0.046774 30.472 0 29.6803 0 23.3461C0 17.0119 0.046774 16.2201 0.140322 13.7516C0.23387 11.2366 0.654836 9.55988 1.21612 8.06949C1.82419 6.53251 2.61934 5.22841 3.92901 3.97089C5.23869 2.66679 6.54836 1.87502 8.0919 1.26954C9.54189 0.710643 11.2725 0.291469 13.7516 0.198319C16.2306 0.0585938 17.0257 0.0585938 23.387 0.0585938V0.0585938ZM21.2822 4.25034C16.9322 4.25034 16.0903 4.25034 13.9386 4.39006C11.6467 4.48321 10.4306 4.85581 9.58867 5.18184C8.51287 5.60101 7.71771 6.11334 6.92255 6.90511C6.12739 7.69689 5.5661 8.48866 5.14514 9.60646C4.81772 10.3982 4.44353 11.6558 4.34998 13.9379C4.25643 16.3598 4.20966 17.105 4.20966 23.3461C4.20966 29.5405 4.25643 30.2857 4.34998 32.7542C4.44353 34.9898 4.81772 36.2473 5.14514 37.0391C5.5661 38.1569 6.08062 38.9021 6.92255 39.7405C7.76448 40.5788 8.51287 41.0446 9.58867 41.4637C10.4306 41.7897 11.6467 42.1623 13.9386 42.3021C16.4177 42.3952 17.1661 42.4418 23.387 42.4418C29.6547 42.4418 30.3563 42.3952 32.8353 42.3021C35.1273 42.1623 36.3434 41.7897 37.1853 41.4637C38.2611 41.0446 39.0563 40.5322 39.8514 39.7405C40.6934 38.9487 41.2079 38.1569 41.6288 37.0391C41.9563 36.2473 42.3305 34.9898 42.424 32.7542C42.5176 30.2857 42.5643 29.5405 42.5643 23.3461C42.5643 17.105 42.5176 16.3598 42.424 13.9379C42.3305 11.6558 41.9563 10.3982 41.6288 9.60646C41.2079 8.53523 40.6934 7.74346 39.8514 6.90511C39.0563 6.11334 38.2611 5.60101 37.1853 5.18184C36.3434 4.85581 35.1273 4.48321 32.8353 4.39006C30.3563 4.25034 29.6547 4.25034 23.387 4.25034C22.5918 4.25034 21.937 4.25034 21.2822 4.25034V4.25034ZM35.8756 8.11606C37.4192 8.11606 38.6821 9.37358 38.6821 10.9106C38.6821 12.4475 37.4192 13.7051 35.8756 13.7051C34.3321 13.7051 33.0692 12.4475 33.0692 10.9106C33.0692 9.37358 34.3321 8.11606 35.8756 8.11606V8.11606ZM23.387 11.3763C30.0289 11.3763 35.4079 16.7324 35.4079 23.3461C35.4079 29.9597 30.0289 35.3158 23.387 35.3158C16.7451 35.3158 11.3661 29.9597 11.3661 23.3461C11.3661 16.7324 16.7451 11.3763 23.387 11.3763ZM23.387 15.5681C19.0838 15.5681 15.5757 19.0612 15.5757 23.3461C15.5757 27.631 19.0838 31.0775 23.387 31.0775C27.6902 31.0775 31.1982 27.631 31.1982 23.3461C31.1982 19.0612 27.6902 15.5681 23.387 15.5681Z" fill="#F1F1F1"/>
</svg>
