<svg width="71" height="35" viewBox="0 0 71 35" fill="none" xmlns="http://www.w3.org/2000/svg">
<path d="M69.6386 14.4016L69.6817 21.0392L50.1106 34.3223L50.1979 27.588L69.6386 14.4016Z" stroke="white" stroke-width="1.32007" stroke-miterlimit="10" stroke-linecap="square" stroke-linejoin="round"/>
<path d="M59.8325 14.3987L54.961 17.6898L54.96 17.6886L50.014 14.3687L49.9404 7.69312L59.8325 14.3987Z" stroke="white" stroke-width="1.32007" stroke-miterlimit="10" stroke-linecap="square" stroke-linejoin="round"/>
<path d="M50.1975 27.5881L50.1102 34.3225L35.3643 24.3212L30.432 20.976L25.5135 17.6388L20.5999 14.3062V7.62598L50.1975 27.5881Z" stroke="white" stroke-width="1.32007" stroke-miterlimit="10" stroke-linecap="square" stroke-linejoin="round"/>
<path d="M49.9416 7.69312L50.0152 14.3687L45.1241 17.6852L40.2075 14.3503L49.9416 7.69312Z" stroke="white" stroke-width="1.32007" stroke-miterlimit="10" stroke-linecap="square" stroke-linejoin="round"/>
<path d="M35.3647 24.3216L35.3627 24.3239L20.6885 34.2549L20.6797 27.5885L30.4324 20.9763L35.3647 24.3216Z" stroke="white" stroke-width="1.32007" stroke-miterlimit="10" stroke-linecap="square" stroke-linejoin="round"/>
<path d="M20.6791 27.5862L20.6879 34.2525L1 20.906V14.2419L20.6791 27.5862Z" stroke="white" stroke-width="1.32007" stroke-miterlimit="10" stroke-linecap="square" stroke-linejoin="round"/>
<path d="M20.5992 7.62598V14.3062L15.7091 17.6134L10.7769 14.2739L20.5992 7.62598Z" stroke="white" stroke-width="1.32007" stroke-miterlimit="10" stroke-linecap="square" stroke-linejoin="round"/>
<path d="M40.2071 14.3488L45.1236 17.6837L50.0373 21.0163L54.9617 17.6895L59.8331 14.3984L49.9411 7.69169L40.2071 14.3488ZM35.2875 11.007L49.948 1.05991L69.6379 14.3984L50.1982 27.5893L20.6016 7.62831L10.7772 14.2751L15.7095 17.6169L20.6339 20.9506L25.5132 17.6411L30.4328 20.9829L20.6791 27.5951L1 14.252L20.525 1L35.2875 11.007Z" stroke="white" stroke-width="1.32007" stroke-miterlimit="10" stroke-linecap="square" stroke-linejoin="round"/>
<path d="M40.2062 14.3511L35.2856 11.0139" stroke="white" stroke-width="1.32007" stroke-miterlimit="10" stroke-linecap="square" stroke-linejoin="round"/>
</svg>
