<svg width="579" height="315" viewBox="0 0 579 315" fill="none" xmlns="http://www.w3.org/2000/svg">
<path d="M685.743 126.795L686.174 189.098L490.919 313.781L491.79 250.569L685.743 126.795Z" stroke="#BC3AF9" stroke-opacity="0.5" stroke-width="1.2" stroke-miterlimit="10" stroke-linecap="square" stroke-linejoin="round"/>
<path d="M587.903 126.766L539.302 157.658L539.292 157.647L489.947 126.485L489.213 63.8242L587.903 126.766Z" stroke="#BC3AF9" stroke-opacity="0.5" stroke-width="1.2" stroke-miterlimit="10" stroke-linecap="square" stroke-linejoin="round"/>
<path d="M491.774 250.57L490.903 313.782L343.789 219.905L294.581 188.505L245.51 157.18L196.488 125.899V63.1953L491.774 250.57Z" stroke="#BC3AF9" stroke-opacity="0.5" stroke-width="1.2" stroke-miterlimit="10" stroke-linecap="square" stroke-linejoin="round"/>
<path d="M489.217 63.8242L489.952 126.485L441.155 157.615L392.104 126.311L489.217 63.8242Z" stroke="#BC3AF9" stroke-opacity="0.5" stroke-width="1.2" stroke-miterlimit="10" stroke-linecap="square" stroke-linejoin="round"/>
<path d="M343.786 219.908L343.766 219.93L197.366 313.147L197.278 250.573L294.578 188.508L343.786 219.908Z" stroke="#BC3AF9" stroke-opacity="0.5" stroke-width="1.2" stroke-miterlimit="10" stroke-linecap="square" stroke-linejoin="round"/>
<path d="M197.281 250.551L197.369 313.124L0.949219 187.847V125.295L197.281 250.551Z" stroke="#BC3AF9" stroke-opacity="0.5" stroke-width="1.2" stroke-miterlimit="10" stroke-linecap="square" stroke-linejoin="round"/>
<path d="M196.495 63.1953V125.899L147.708 156.942L98.5 125.596L196.495 63.1953Z" stroke="#BC3AF9" stroke-opacity="0.5" stroke-width="1.2" stroke-miterlimit="10" stroke-linecap="square" stroke-linejoin="round"/>
<path d="M392.106 126.299L441.157 157.602L490.179 188.883L539.308 157.656L587.909 126.764L489.219 63.8116L392.106 126.299ZM343.025 94.9308L489.288 1.56235L685.727 126.764L491.784 250.581L196.508 63.2166L98.4935 125.606L147.701 156.974L196.831 188.267L245.51 157.202L294.591 188.57L197.281 250.635L0.949219 125.39L195.744 1L343.025 94.9308Z" stroke="#BC3AF9" stroke-opacity="0.5" stroke-width="1.2" stroke-miterlimit="10" stroke-linecap="square" stroke-linejoin="round"/>
<path d="M392.097 126.321L343.007 94.9961" stroke="#BC3AF9" stroke-opacity="0.5" stroke-width="1.2" stroke-miterlimit="10" stroke-linecap="square" stroke-linejoin="round"/>
</svg>
