<svg width="382" height="35" viewBox="0 0 382 35" fill="none" xmlns="http://www.w3.org/2000/svg">
<g clip-path="url(#clip0_1_444)">
<path d="M81.9424 17.5646C81.9424 18.9137 82.2056 20.2133 82.7321 21.4143C83.2585 22.6152 83.9495 23.6517 84.8378 24.5565C85.7427 25.4284 86.7956 26.1359 88.013 26.6623C89.2304 27.1887 90.53 27.452 91.912 27.452C93.7545 27.452 95.3997 27.0407 96.8474 26.2017C98.3116 25.3462 99.4796 24.2275 100.368 22.8456L98.8545 21.2991C98.5254 21.9078 98.0977 22.4672 97.6042 22.9607C97.1271 23.4378 96.5842 23.8656 95.9755 24.211C95.3832 24.573 94.7581 24.8526 94.0671 25.0665C93.3761 25.2475 92.6687 25.3462 91.9284 25.3462C90.8591 25.3462 89.8391 25.1323 88.8849 24.721C87.9472 24.3097 87.1081 23.7339 86.4007 23.0265C85.6933 22.3191 85.1175 21.4965 84.7062 20.5753C84.2949 19.6375 84.0811 18.634 84.0811 17.5976C84.0811 16.5776 84.2949 15.5905 84.7062 14.6527C85.1175 13.6821 85.6933 12.8595 86.4007 12.1357C87.1081 11.4283 87.9472 10.8525 88.9178 10.4412C89.8884 9.99698 90.892 9.78311 91.9613 9.78311C92.751 9.78311 93.5242 9.91473 94.2481 10.1615C95.0048 10.3918 95.6958 10.7208 96.3209 11.165C96.9461 11.6092 97.5055 12.1192 97.9825 12.7115C98.4925 13.3037 98.8874 13.9289 99.1999 14.6198L100.96 13.4847C100.565 12.6457 100.055 11.8724 99.4138 11.165C98.8051 10.4576 98.1142 9.83247 97.3409 9.30602C96.5677 8.77958 95.7122 8.38474 94.791 8.10507C93.8697 7.80894 92.899 7.66088 91.8955 7.66088C90.5136 7.66088 89.2139 7.9241 87.9965 8.45055C86.7791 8.97699 85.7262 9.68441 84.8214 10.5892C83.9495 11.4612 83.2585 12.5141 82.7321 13.7315C82.2056 14.916 81.9424 16.1992 81.9424 17.5646ZM119.402 27.3533H121.755L117.576 19.0946C118.218 19.0946 118.827 18.9466 119.402 18.6504C119.995 18.3379 120.488 17.9266 120.916 17.433C121.36 16.9066 121.706 16.3308 121.952 15.6727C122.199 14.9982 122.331 14.3073 122.331 13.5669C122.331 12.7444 122.199 11.9876 121.919 11.2802C121.673 10.5728 121.327 9.96408 120.883 9.45409C120.439 8.92764 119.929 8.51635 119.337 8.23668C118.744 7.9241 118.136 7.75959 117.478 7.75959H105.073V27.3533H107.278V9.73376H117.083C117.543 9.73376 117.955 9.86537 118.3 10.1121C118.678 10.3425 118.991 10.6386 119.238 11.017C119.485 11.3789 119.682 11.7737 119.797 12.2344C119.945 12.6786 120.011 13.1063 120.011 13.5176C120.011 13.896 119.962 14.2908 119.847 14.7185C119.731 15.1463 119.567 15.5247 119.32 15.8866C119.09 16.2485 118.794 16.5282 118.448 16.7585C118.086 16.9888 117.658 17.104 117.165 17.104H114.154L119.402 27.3533ZM141.118 17.1205V19.0946H131.724V17.1205H141.118ZM126.46 27.3533V7.75959H141.381V9.73376H128.664V25.3791H141.381V27.3533H126.46ZM144.902 27.3533H147.353L155.266 11.4283L162.077 25.3791H152.848L151.499 27.3533H165.532L155.266 6.72314L144.902 27.3533ZM164.233 7.75959V9.73376H171.521V27.3533H173.725V9.73376H181.046V7.75959H164.233ZM200.014 17.1205V19.0946H190.621V17.1205H200.014ZM185.34 27.3533V7.75959H200.261V9.73376H187.544V25.3791H200.261V27.3533H185.34ZM215.758 27.3533H217.963V9.73376H227.768C228.229 9.73376 228.64 9.86537 228.985 10.1121C229.364 10.3425 229.676 10.6386 229.923 11.017C230.17 11.3789 230.367 11.7737 230.482 12.2344C230.631 12.6786 230.696 13.1063 230.696 13.5176C230.696 13.896 230.647 14.2908 230.532 14.7185C230.433 15.1298 230.252 15.5247 230.005 15.8866C229.775 16.2485 229.479 16.5282 229.133 16.7585C228.772 16.9888 228.344 17.104 227.85 17.104H224.922V19.0782H228.212C228.854 19.0782 229.462 18.9301 230.038 18.634C230.631 18.3214 231.141 17.9101 231.585 17.4166C232.029 16.8901 232.374 16.3143 232.621 15.6563C232.868 14.9818 233 14.2908 233 13.5505C233 12.7279 232.868 11.9712 232.588 11.2637C232.341 10.5563 231.996 9.94763 231.552 9.43763C231.108 8.91119 230.598 8.4999 230.005 8.22023C229.413 7.90765 228.804 7.74313 228.146 7.74313H215.742V27.3533H215.758ZM251.458 27.3533H253.811L249.632 19.0946C250.274 19.0946 250.882 18.9466 251.458 18.6504C252.05 18.3379 252.544 17.9266 252.972 17.433C253.416 16.9066 253.761 16.3308 254.008 15.6727C254.255 14.9982 254.386 14.3073 254.386 13.5669C254.386 12.7444 254.255 11.9876 253.975 11.2802C253.728 10.5728 253.383 9.96408 252.939 9.45409C252.495 8.92764 251.985 8.51635 251.392 8.23668C250.8 7.9241 250.191 7.75959 249.533 7.75959H237.129V27.3533H239.333V9.73376H249.138C249.599 9.73376 250.01 9.86537 250.356 10.1121C250.734 10.3425 251.047 10.6386 251.294 11.017C251.54 11.3789 251.738 11.7737 251.853 12.2344C252.001 12.6786 252.067 13.1063 252.067 13.5176C252.067 13.896 252.017 14.2908 251.902 14.7185C251.804 15.1298 251.623 15.5247 251.376 15.8866C251.146 16.2485 250.849 16.5282 250.504 16.7585C250.142 16.9888 249.714 17.104 249.221 17.104H246.21L251.458 27.3533ZM259.75 17.5976C259.75 16.5776 259.963 15.5905 260.375 14.6527C260.786 13.6821 261.362 12.8595 262.069 12.1357C262.777 11.4283 263.616 10.8525 264.586 10.4412C265.557 9.99698 266.56 9.78311 267.63 9.78311C268.699 9.78311 269.703 9.99698 270.64 10.4412C271.611 10.8525 272.434 11.4283 273.158 12.1357C273.865 12.8431 274.441 13.6821 274.852 14.6527C275.263 15.5905 275.477 16.5776 275.477 17.5976C275.477 18.3543 275.362 19.0782 275.132 19.802C274.901 20.5095 274.589 21.184 274.194 21.8091C273.799 22.4178 273.322 22.9772 272.746 23.4707C272.187 23.9478 271.578 24.3426 270.92 24.6717L272.088 26.432C272.911 26.0371 273.651 25.5271 274.326 24.9184C275 24.2933 275.576 23.6023 276.053 22.8456C276.53 22.0723 276.908 21.2498 277.155 20.3614C277.435 19.4566 277.567 18.5353 277.567 17.5646C277.567 16.1992 277.303 14.9324 276.777 13.7315C276.25 12.5141 275.543 11.4776 274.638 10.5892C273.766 9.68441 272.713 8.97699 271.496 8.45055C270.279 7.9241 268.979 7.66088 267.597 7.66088C266.215 7.66088 264.915 7.9241 263.698 8.45055C262.481 8.97699 261.428 9.68441 260.523 10.5892C259.651 11.4612 258.943 12.5141 258.417 13.7315C257.891 14.9324 257.627 16.1992 257.627 17.5646C257.627 18.5024 257.759 19.4237 258.006 20.2956C258.253 21.1675 258.598 22.0065 259.042 22.7798C259.503 23.553 260.062 24.2604 260.704 24.8855C261.345 25.4942 262.069 26.0042 262.875 26.432L264.257 24.7046C263.583 24.392 262.974 23.9807 262.398 23.4872C261.855 22.9772 261.378 22.4343 260.983 21.8256C260.589 21.2004 260.276 20.5259 260.046 19.8185C259.865 19.0782 259.75 18.3379 259.75 17.5976ZM279.097 7.75959V9.73376H286.384V27.3533H288.589V9.73376H295.91V7.75959H279.097ZM299.529 17.5976C299.529 16.5776 299.743 15.5905 300.154 14.6527C300.566 13.6821 301.141 12.8595 301.849 12.1357C302.556 11.4283 303.395 10.8525 304.366 10.4412C305.337 9.99698 306.34 9.78311 307.409 9.78311C308.479 9.78311 309.482 9.99698 310.42 10.4412C311.391 10.8525 312.213 11.4283 312.937 12.1357C313.645 12.8431 314.22 13.6821 314.632 14.6527C315.043 15.5905 315.257 16.5776 315.257 17.5976C315.257 18.3543 315.142 19.0782 314.911 19.802C314.681 20.5095 314.368 21.184 313.974 21.8091C313.579 22.4178 313.102 22.9772 312.526 23.4707C311.966 23.9478 311.358 24.3426 310.7 24.6717L311.868 26.432C312.69 26.0371 313.431 25.5271 314.105 24.9184C314.78 24.2933 315.355 23.6023 315.833 22.8456C316.31 22.0723 316.688 21.2498 316.935 20.3614C317.215 19.4566 317.346 18.5353 317.346 17.5646C317.346 16.1992 317.083 14.9324 316.556 13.7315C316.03 12.5141 315.323 11.4776 314.418 10.5892C313.546 9.68441 312.493 8.97699 311.276 8.45055C310.058 7.9241 308.758 7.66088 307.377 7.66088C305.995 7.66088 304.695 7.9241 303.478 8.45055C302.26 8.97699 301.207 9.68441 300.302 10.5892C299.43 11.4612 298.723 12.5141 298.197 13.7315C297.67 14.9324 297.407 16.1992 297.407 17.5646C297.407 18.5024 297.539 19.4237 297.785 20.2956C298.032 21.1675 298.378 22.0065 298.822 22.7798C299.282 23.553 299.842 24.2604 300.483 24.8855C301.125 25.4942 301.849 26.0042 302.655 26.432L304.037 24.7046C303.362 24.392 302.754 23.9807 302.178 23.4872C301.635 22.9772 301.158 22.4343 300.763 21.8256C300.368 21.2004 300.056 20.5259 299.825 19.8185C299.644 19.0782 299.529 18.3379 299.529 17.5976ZM320.916 17.5646C320.916 18.9301 321.179 20.2133 321.706 21.4307C322.232 22.6317 322.923 23.6681 323.812 24.573C324.716 25.4449 325.769 26.1523 326.987 26.6788C328.204 27.2052 329.504 27.4684 330.886 27.4684C332.728 27.4684 334.373 27.0571 335.821 26.2181C337.285 25.3626 338.453 24.2439 339.342 22.862L337.828 21.3156C337.499 21.9243 337.071 22.4836 336.578 22.9772C336.101 23.4543 335.558 23.882 334.949 24.2275C334.357 24.5894 333.732 24.8691 333.041 25.083C332.35 25.2639 331.642 25.3626 330.902 25.3626C329.833 25.3626 328.813 25.1488 327.859 24.7375C326.921 24.3262 326.082 23.7504 325.374 23.043C324.667 22.3356 324.091 21.513 323.68 20.5917C323.269 19.654 323.055 18.6504 323.055 17.614C323.055 16.594 323.269 15.6069 323.68 14.6692C324.091 13.6986 324.667 12.876 325.374 12.1521C326.082 11.4447 326.921 10.8689 327.891 10.4576C328.862 10.0134 329.866 9.79957 330.935 9.79957C331.725 9.79957 332.498 9.93118 333.222 10.1779C333.979 10.4083 334.669 10.7373 335.295 11.1815C335.92 11.6257 336.479 12.1357 336.956 12.7279C337.466 13.3202 337.861 13.9453 338.174 14.6363L339.934 13.5011C339.539 12.6621 339.029 11.8889 338.388 11.1815C337.779 10.4741 337.088 9.84892 336.315 9.32247C335.541 8.79603 334.686 8.40119 333.765 8.12152C332.843 7.82539 331.873 7.67733 330.869 7.67733C329.487 7.67733 328.188 7.94055 326.97 8.467C325.753 8.99344 324.7 9.70086 323.795 10.6057C322.923 11.4776 322.216 12.5305 321.689 13.7479C321.179 14.916 320.916 16.1992 320.916 17.5646ZM345.297 17.5976C345.297 16.5776 345.511 15.5905 345.922 14.6527C346.334 13.6821 346.909 12.8595 347.617 12.1357C348.324 11.4283 349.163 10.8525 350.134 10.4412C351.104 9.99698 352.108 9.78311 353.177 9.78311C354.247 9.78311 355.25 9.99698 356.188 10.4412C357.159 10.8525 357.981 11.4283 358.705 12.1357C359.412 12.8431 359.988 13.6821 360.4 14.6527C360.811 15.5905 361.025 16.5776 361.025 17.5976C361.025 18.3543 360.91 19.0782 360.679 19.802C360.449 20.5095 360.136 21.184 359.741 21.8091C359.347 22.4178 358.87 22.9772 358.294 23.4707C357.734 23.9478 357.126 24.3426 356.468 24.6717L357.636 26.432C358.458 26.0371 359.199 25.5271 359.873 24.9184C360.548 24.2933 361.123 23.6023 361.6 22.8456C362.078 22.0723 362.456 21.2498 362.703 20.3614C362.982 19.4566 363.114 18.5353 363.114 17.5646C363.114 16.1992 362.851 14.9324 362.324 13.7315C361.798 12.5141 361.091 11.4776 360.186 10.5892C359.314 9.68441 358.261 8.97699 357.043 8.45055C355.826 7.9241 354.526 7.66088 353.144 7.66088C351.763 7.66088 350.463 7.9241 349.245 8.45055C348.028 8.97699 346.975 9.68441 346.07 10.5892C345.198 11.4612 344.491 12.5141 343.965 13.7315C343.438 14.9324 343.175 16.1992 343.175 17.5646C343.175 18.5024 343.306 19.4237 343.553 20.2956C343.8 21.1675 344.146 22.0065 344.59 22.7798C345.05 23.553 345.61 24.2604 346.251 24.8855C346.893 25.4942 347.617 26.0042 348.423 26.432L349.805 24.7046C349.13 24.392 348.522 23.9807 347.946 23.4872C347.403 22.9772 346.926 22.4343 346.531 21.8256C346.136 21.2004 345.824 20.5259 345.593 19.8185C345.396 19.0782 345.297 18.3379 345.297 17.5976ZM367.095 27.3533V7.75959H369.3V25.3791H382.017V27.3533H367.095Z" fill="white"/>
</g>
<path d="M69.6386 14.4016L69.6817 21.0392L50.1106 34.3223L50.1979 27.588L69.6386 14.4016Z" stroke="white" stroke-width="1.32007" stroke-miterlimit="10" stroke-linecap="square" stroke-linejoin="round"/>
<path d="M59.8325 14.3987L54.961 17.6898L54.96 17.6886L50.014 14.3687L49.9404 7.69312L59.8325 14.3987Z" stroke="white" stroke-width="1.32007" stroke-miterlimit="10" stroke-linecap="square" stroke-linejoin="round"/>
<path d="M50.1975 27.5881L50.1102 34.3225L35.3643 24.3212L30.432 20.976L25.5135 17.6388L20.5999 14.3062V7.62598L50.1975 27.5881Z" stroke="white" stroke-width="1.32007" stroke-miterlimit="10" stroke-linecap="square" stroke-linejoin="round"/>
<path d="M49.9416 7.69312L50.0152 14.3687L45.1241 17.6852L40.2075 14.3503L49.9416 7.69312Z" stroke="white" stroke-width="1.32007" stroke-miterlimit="10" stroke-linecap="square" stroke-linejoin="round"/>
<path d="M35.3647 24.3216L35.3627 24.3239L20.6885 34.2549L20.6797 27.5885L30.4324 20.9763L35.3647 24.3216Z" stroke="white" stroke-width="1.32007" stroke-miterlimit="10" stroke-linecap="square" stroke-linejoin="round"/>
<path d="M20.6791 27.5862L20.6879 34.2525L1 20.906V14.2419L20.6791 27.5862Z" stroke="white" stroke-width="1.32007" stroke-miterlimit="10" stroke-linecap="square" stroke-linejoin="round"/>
<path d="M20.5992 7.62598V14.3062L15.7091 17.6134L10.7769 14.2739L20.5992 7.62598Z" stroke="white" stroke-width="1.32007" stroke-miterlimit="10" stroke-linecap="square" stroke-linejoin="round"/>
<path d="M40.2071 14.3488L45.1236 17.6837L50.0373 21.0163L54.9617 17.6895L59.8331 14.3984L49.9411 7.69169L40.2071 14.3488ZM35.2875 11.007L49.948 1.05991L69.6379 14.3984L50.1982 27.5893L20.6016 7.62831L10.7772 14.2751L15.7095 17.6169L20.6339 20.9506L25.5132 17.6411L30.4328 20.9829L20.6791 27.5951L1 14.252L20.525 1L35.2875 11.007Z" stroke="white" stroke-width="1.32007" stroke-miterlimit="10" stroke-linecap="square" stroke-linejoin="round"/>
<path d="M40.2062 14.3511L35.2856 11.0139" stroke="white" stroke-width="1.32007" stroke-miterlimit="10" stroke-linecap="square" stroke-linejoin="round"/>
<defs>
<clipPath id="clip0_1_444">
<rect width="300.058" height="20.7288" fill="white" transform="translate(81.9421 6.72314)"/>
</clipPath>
</defs>
</svg>
