<svg width="301" height="22" viewBox="0 0 301 22" fill="none" xmlns="http://www.w3.org/2000/svg">
<path d="M0.942383 11.5646C0.942383 12.9137 1.20561 14.2133 1.73205 15.4143C2.2585 16.6152 2.94946 17.6517 3.83784 18.5565C4.74267 19.4284 5.79556 20.1359 7.01297 20.6623C8.23037 21.1887 9.53004 21.452 10.912 21.452C12.7545 21.452 14.3997 21.0407 15.8474 20.2017C17.3116 19.3462 18.4796 18.2275 19.368 16.8456L17.8545 15.2991C17.5254 15.9078 17.0977 16.4672 16.6042 16.9607C16.1271 17.4378 15.5842 17.8656 14.9755 18.211C14.3832 18.573 13.7581 18.8526 13.0671 19.0665C12.3761 19.2475 11.6687 19.3462 10.9284 19.3462C9.85907 19.3462 8.83908 19.1323 7.88489 18.721C6.94716 18.3097 6.10814 17.7339 5.40072 17.0265C4.69331 16.3191 4.11751 15.4965 3.70623 14.5753C3.29494 13.6375 3.08107 12.634 3.08107 11.5976C3.08107 10.5776 3.29494 9.59048 3.70623 8.65274C4.11751 7.68211 4.69331 6.85953 5.40072 6.13567C6.10814 5.42826 6.94716 4.85246 7.9178 4.44117C8.88843 3.99698 9.89197 3.78311 10.9613 3.78311C11.751 3.78311 12.5242 3.91473 13.2481 4.1615C14.0048 4.39182 14.6958 4.72085 15.3209 5.16504C15.9461 5.60922 16.5055 6.11922 16.9825 6.71147C17.4925 7.30372 17.8874 7.92888 18.1999 8.61984L19.9603 7.48469C19.5654 6.64567 19.0554 5.87245 18.4138 5.16504C17.8051 4.45762 17.1142 3.83247 16.3409 3.30602C15.5677 2.77958 14.7122 2.38474 13.791 2.10507C12.8697 1.80894 11.899 1.66088 10.8955 1.66088C9.51359 1.66088 8.21392 1.9241 6.99651 2.45055C5.77911 2.97699 4.72622 3.68441 3.82139 4.58923C2.94946 5.46116 2.2585 6.51405 1.73205 7.73146C1.20561 8.91597 0.942383 10.1992 0.942383 11.5646ZM38.4023 21.3533H40.7549L36.5762 13.0946C37.2178 13.0946 37.8265 12.9466 38.4023 12.6504C38.9946 12.3379 39.4881 11.9266 39.9159 11.433C40.36 10.9066 40.7055 10.3308 40.9523 9.67273C41.1991 8.99822 41.3307 8.30726 41.3307 7.56695C41.3307 6.74437 41.1991 5.98761 40.9194 5.2802C40.6726 4.57278 40.3271 3.96408 39.883 3.45409C39.4388 2.92764 38.9288 2.51635 38.3365 2.23668C37.7443 1.9241 37.1356 1.75959 36.4775 1.75959H24.0731V21.3533H26.2776V3.73376H36.0827C36.5433 3.73376 36.9546 3.86537 37.3001 4.11214C37.6785 4.34246 37.991 4.63859 38.2378 5.01697C38.4846 5.3789 38.682 5.77374 38.7972 6.23438C38.9452 6.67857 39.011 7.10631 39.011 7.51759C39.011 7.89598 38.9617 8.29081 38.8465 8.71855C38.7313 9.14629 38.5668 9.52467 38.3201 9.8866C38.0897 10.2485 37.7936 10.5282 37.4481 10.7585C37.0862 10.9888 36.6585 11.104 36.1649 11.104H33.1543L38.4023 21.3533ZM60.1182 11.1205V13.0946H50.7245V11.1205H60.1182ZM45.46 21.3533V1.75959H60.3815V3.73376H47.6645V19.3791H60.3815V21.3533H45.46ZM63.9021 21.3533H66.3533L74.2665 5.42826L81.0774 19.3791H71.8481L70.4991 21.3533H84.5322L74.2665 0.723145L63.9021 21.3533ZM83.2325 1.75959V3.73376H90.5205V21.3533H92.725V3.73376H100.046V1.75959H83.2325ZM119.014 11.1205V13.0946H109.621V11.1205H119.014ZM104.34 21.3533V1.75959H119.261V3.73376H106.544V19.3791H119.261V21.3533H104.34ZM134.758 21.3533H136.963V3.73376H146.768C147.229 3.73376 147.64 3.86537 147.985 4.11214C148.364 4.34246 148.676 4.63859 148.923 5.01697C149.17 5.3789 149.367 5.77374 149.482 6.23438C149.631 6.67857 149.696 7.10631 149.696 7.51759C149.696 7.89598 149.647 8.29081 149.532 8.71855C149.433 9.12983 149.252 9.52467 149.005 9.8866C148.775 10.2485 148.479 10.5282 148.133 10.7585C147.772 10.9888 147.344 11.104 146.85 11.104H143.922V13.0782H147.212C147.854 13.0782 148.462 12.9301 149.038 12.634C149.631 12.3214 150.141 11.9101 150.585 11.4166C151.029 10.8901 151.374 10.3143 151.621 9.65628C151.868 8.98177 152 8.29081 152 7.5505C152 6.72792 151.868 5.97116 151.588 5.26374C151.341 4.55633 150.996 3.94763 150.552 3.43763C150.108 2.91119 149.598 2.4999 149.005 2.22023C148.413 1.90765 147.804 1.74313 147.146 1.74313H134.742V21.3533H134.758ZM170.458 21.3533H172.811L168.632 13.0946C169.274 13.0946 169.882 12.9466 170.458 12.6504C171.05 12.3379 171.544 11.9266 171.972 11.433C172.416 10.9066 172.761 10.3308 173.008 9.67273C173.255 8.99822 173.386 8.30726 173.386 7.56695C173.386 6.74437 173.255 5.98761 172.975 5.2802C172.728 4.57278 172.383 3.96408 171.939 3.45409C171.495 2.92764 170.985 2.51635 170.392 2.23668C169.8 1.9241 169.191 1.75959 168.533 1.75959H156.129V21.3533H158.333V3.73376H168.138C168.599 3.73376 169.01 3.86537 169.356 4.11214C169.734 4.34246 170.047 4.63859 170.294 5.01697C170.54 5.3789 170.738 5.77374 170.853 6.23438C171.001 6.67857 171.067 7.10631 171.067 7.51759C171.067 7.89598 171.017 8.29081 170.902 8.71855C170.804 9.12983 170.623 9.52467 170.376 9.8866C170.146 10.2485 169.849 10.5282 169.504 10.7585C169.142 10.9888 168.714 11.104 168.221 11.104H165.21L170.458 21.3533ZM178.75 11.5976C178.75 10.5776 178.963 9.59048 179.375 8.65274C179.786 7.68211 180.362 6.85953 181.069 6.13567C181.777 5.42826 182.616 4.85246 183.586 4.44117C184.557 3.99698 185.56 3.78311 186.63 3.78311C187.699 3.78311 188.703 3.99698 189.64 4.44117C190.611 4.85246 191.434 5.42826 192.158 6.13567C192.865 6.84308 193.441 7.68211 193.852 8.65274C194.263 9.59048 194.477 10.5776 194.477 11.5976C194.477 12.3543 194.362 13.0782 194.132 13.802C193.901 14.5095 193.589 15.184 193.194 15.8091C192.799 16.4178 192.322 16.9772 191.746 17.4707C191.187 17.9478 190.578 18.3426 189.92 18.6717L191.088 20.432C191.911 20.0371 192.651 19.5271 193.326 18.9184C194 18.2933 194.576 17.6023 195.053 16.8456C195.53 16.0723 195.908 15.2498 196.155 14.3614C196.435 13.4566 196.567 12.5353 196.567 11.5646C196.567 10.1992 196.303 8.93242 195.777 7.73146C195.25 6.51405 194.543 5.47761 193.638 4.58923C192.766 3.68441 191.713 2.97699 190.496 2.45055C189.279 1.9241 187.979 1.66088 186.597 1.66088C185.215 1.66088 183.915 1.9241 182.698 2.45055C181.481 2.97699 180.428 3.68441 179.523 4.58923C178.651 5.46116 177.943 6.51405 177.417 7.73146C176.891 8.93242 176.627 10.1992 176.627 11.5646C176.627 12.5024 176.759 13.4237 177.006 14.2956C177.253 15.1675 177.598 16.0065 178.042 16.7798C178.503 17.553 179.062 18.2604 179.704 18.8855C180.345 19.4942 181.069 20.0042 181.875 20.432L183.257 18.7046C182.583 18.392 181.974 17.9807 181.398 17.4872C180.855 16.9772 180.378 16.4343 179.983 15.8256C179.589 15.2004 179.276 14.5259 179.046 13.8185C178.865 13.0782 178.75 12.3379 178.75 11.5976ZM198.097 1.75959V3.73376H205.384V21.3533H207.589V3.73376H214.91V1.75959H198.097ZM218.529 11.5976C218.529 10.5776 218.743 9.59048 219.154 8.65274C219.566 7.68211 220.141 6.85953 220.849 6.13567C221.556 5.42826 222.395 4.85246 223.366 4.44117C224.337 3.99698 225.34 3.78311 226.409 3.78311C227.479 3.78311 228.482 3.99698 229.42 4.44117C230.391 4.85246 231.213 5.42826 231.937 6.13567C232.645 6.84308 233.22 7.68211 233.632 8.65274C234.043 9.59048 234.257 10.5776 234.257 11.5976C234.257 12.3543 234.142 13.0782 233.911 13.802C233.681 14.5095 233.368 15.184 232.974 15.8091C232.579 16.4178 232.102 16.9772 231.526 17.4707C230.966 17.9478 230.358 18.3426 229.7 18.6717L230.868 20.432C231.69 20.0371 232.431 19.5271 233.105 18.9184C233.78 18.2933 234.355 17.6023 234.833 16.8456C235.31 16.0723 235.688 15.2498 235.935 14.3614C236.215 13.4566 236.346 12.5353 236.346 11.5646C236.346 10.1992 236.083 8.93242 235.556 7.73146C235.03 6.51405 234.323 5.47761 233.418 4.58923C232.546 3.68441 231.493 2.97699 230.276 2.45055C229.058 1.9241 227.758 1.66088 226.377 1.66088C224.995 1.66088 223.695 1.9241 222.478 2.45055C221.26 2.97699 220.207 3.68441 219.302 4.58923C218.43 5.46116 217.723 6.51405 217.197 7.73146C216.67 8.93242 216.407 10.1992 216.407 11.5646C216.407 12.5024 216.539 13.4237 216.785 14.2956C217.032 15.1675 217.378 16.0065 217.822 16.7798C218.282 17.553 218.842 18.2604 219.483 18.8855C220.125 19.4942 220.849 20.0042 221.655 20.432L223.037 18.7046C222.362 18.392 221.754 17.9807 221.178 17.4872C220.635 16.9772 220.158 16.4343 219.763 15.8256C219.368 15.2004 219.056 14.5259 218.825 13.8185C218.644 13.0782 218.529 12.3379 218.529 11.5976ZM239.916 11.5646C239.916 12.9301 240.179 14.2133 240.706 15.4307C241.232 16.6317 241.923 17.6681 242.812 18.573C243.716 19.4449 244.769 20.1523 245.987 20.6788C247.204 21.2052 248.504 21.4684 249.886 21.4684C251.728 21.4684 253.373 21.0571 254.821 20.2181C256.285 19.3626 257.453 18.2439 258.342 16.862L256.828 15.3156C256.499 15.9243 256.071 16.4836 255.578 16.9772C255.101 17.4543 254.558 17.882 253.949 18.2275C253.357 18.5894 252.732 18.8691 252.041 19.083C251.35 19.2639 250.642 19.3626 249.902 19.3626C248.833 19.3626 247.813 19.1488 246.859 18.7375C245.921 18.3262 245.082 17.7504 244.374 17.043C243.667 16.3356 243.091 15.513 242.68 14.5917C242.269 13.654 242.055 12.6504 242.055 11.614C242.055 10.594 242.269 9.60693 242.68 8.66919C243.091 7.69856 243.667 6.87599 244.374 6.15212C245.082 5.44471 245.921 4.86891 246.891 4.45762C247.862 4.01343 248.866 3.79957 249.935 3.79957C250.725 3.79957 251.498 3.93118 252.222 4.17795C252.979 4.40827 253.669 4.7373 254.295 5.18149C254.92 5.62568 255.479 6.13567 255.956 6.72792C256.466 7.32018 256.861 7.94533 257.174 8.63629L258.934 7.50114C258.539 6.66212 258.029 5.8889 257.388 5.18149C256.779 4.47407 256.088 3.84892 255.315 3.32247C254.541 2.79603 253.686 2.40119 252.765 2.12152C251.843 1.82539 250.873 1.67733 249.869 1.67733C248.487 1.67733 247.188 1.94055 245.97 2.467C244.753 2.99344 243.7 3.70086 242.795 4.60569C241.923 5.47761 241.216 6.53051 240.689 7.74791C240.179 8.91597 239.916 10.1992 239.916 11.5646ZM264.297 11.5976C264.297 10.5776 264.511 9.59048 264.922 8.65274C265.334 7.68211 265.909 6.85953 266.617 6.13567C267.324 5.42826 268.163 4.85246 269.134 4.44117C270.104 3.99698 271.108 3.78311 272.177 3.78311C273.247 3.78311 274.25 3.99698 275.188 4.44117C276.159 4.85246 276.981 5.42826 277.705 6.13567C278.412 6.84308 278.988 7.68211 279.4 8.65274C279.811 9.59048 280.025 10.5776 280.025 11.5976C280.025 12.3543 279.91 13.0782 279.679 13.802C279.449 14.5095 279.136 15.184 278.741 15.8091C278.347 16.4178 277.87 16.9772 277.294 17.4707C276.734 17.9478 276.126 18.3426 275.468 18.6717L276.636 20.432C277.458 20.0371 278.199 19.5271 278.873 18.9184C279.548 18.2933 280.123 17.6023 280.6 16.8456C281.078 16.0723 281.456 15.2498 281.703 14.3614C281.982 13.4566 282.114 12.5353 282.114 11.5646C282.114 10.1992 281.851 8.93242 281.324 7.73146C280.798 6.51405 280.091 5.47761 279.186 4.58923C278.314 3.68441 277.261 2.97699 276.043 2.45055C274.826 1.9241 273.526 1.66088 272.144 1.66088C270.763 1.66088 269.463 1.9241 268.245 2.45055C267.028 2.97699 265.975 3.68441 265.07 4.58923C264.198 5.46116 263.491 6.51405 262.965 7.73146C262.438 8.93242 262.175 10.1992 262.175 11.5646C262.175 12.5024 262.306 13.4237 262.553 14.2956C262.8 15.1675 263.146 16.0065 263.59 16.7798C264.05 17.553 264.61 18.2604 265.251 18.8855C265.893 19.4942 266.617 20.0042 267.423 20.432L268.805 18.7046C268.13 18.392 267.522 17.9807 266.946 17.4872C266.403 16.9772 265.926 16.4343 265.531 15.8256C265.136 15.2004 264.824 14.5259 264.593 13.8185C264.396 13.0782 264.297 12.3379 264.297 11.5976ZM286.095 21.3533V1.75959H288.3V19.3791H301.017V21.3533H286.095Z" fill="white"/>
</svg>
