<svg width="195" height="157" viewBox="0 0 195 157" fill="none" xmlns="http://www.w3.org/2000/svg">
<g filter="url(#filter0_ddd_1_475)">
<path d="M107.509 74.2371L120.76 74.2416L134.001 74.2439L140.646 64.7321L147.219 55.3225L120.562 55.318L107.509 74.2371ZM94.2433 74.2266L113.985 45.8471L167.034 45.8404L140.858 83.4712L61.205 83.6076L47.9615 102.598L61.251 102.597L74.5166 102.593L81.0872 93.1492L94.3489 93.1616L81.2126 112.033L28.1731 112.013L54.4578 74.2115L94.2433 74.2266Z" fill="url(#paint0_linear_1_475)"/>
<path d="M107.509 74.2371L120.76 74.2416L134.001 74.2439L140.646 64.7321L147.219 55.3225L120.562 55.318L107.509 74.2371ZM94.2433 74.2266L113.985 45.8471L167.034 45.8404L140.858 83.4712L61.205 83.6076L47.9615 102.598L61.251 102.597L74.5166 102.593L81.0872 93.1492L94.3489 93.1616L81.2126 112.033L28.1731 112.013L54.4578 74.2115L94.2433 74.2266Z" fill="#FF00E5" style="mix-blend-mode:saturation"/>
</g>
<path d="M107.509 73.9791L120.76 73.9835L134.001 73.9859L140.646 64.4741L147.219 55.0645L120.562 55.0599L107.509 73.9791ZM94.2433 73.9686L113.985 45.589L167.034 45.5824L140.858 83.2132L61.205 83.3496L47.9615 102.34L61.251 102.339L74.5166 102.335L81.0872 92.8911L94.3489 92.9036L81.2127 111.775L28.1731 111.755L54.4578 73.9535L94.2433 73.9686Z" fill="url(#paint1_linear_1_475)"/>
<path d="M107.509 73.9791L120.76 73.9835L134.001 73.9859L140.646 64.4741L147.219 55.0645L120.562 55.0599L107.509 73.9791ZM94.2433 73.9686L113.985 45.589L167.034 45.5824L140.858 83.2132L61.205 83.3496L47.9615 102.34L61.251 102.339L74.5166 102.335L81.0872 92.8911L94.3489 92.9036L81.2127 111.775L28.1731 111.755L54.4578 73.9535L94.2433 73.9686Z" fill="#FF00E5" style="mix-blend-mode:saturation"/>
<path d="M107.509 73.4622L120.76 73.4667L134.001 73.469L140.646 63.9572L147.219 54.5477L120.562 54.5431L107.509 73.4622ZM94.2433 73.4517L113.985 45.0722L167.034 45.0656L140.858 82.6963L61.205 82.8327L47.9615 101.823L61.251 101.823L74.5166 101.818L81.0872 92.3743L94.3489 92.3867L81.2126 111.258L28.1731 111.238L54.4578 73.4366L94.2433 73.4517Z" fill="url(#paint2_linear_1_475)"/>
<path d="M107.509 73.4622L120.76 73.4667L134.001 73.469L140.646 63.9572L147.219 54.5477L120.562 54.5431L107.509 73.4622ZM94.2433 73.4517L113.985 45.0722L167.034 45.0656L140.858 82.6963L61.205 82.8327L47.9615 101.823L61.251 101.823L74.5166 101.818L81.0872 92.3743L94.3489 92.3867L81.2126 111.258L28.1731 111.238L54.4578 73.4366L94.2433 73.4517Z" fill="#FF00E5" style="mix-blend-mode:saturation"/>
<path d="M107.509 72.9454L120.76 72.9498L134.001 72.9522L140.646 63.4404L147.219 54.0308L120.562 54.0262L107.509 72.9454ZM94.2433 72.9349L113.985 44.5553L167.034 44.5487L140.858 82.1795L61.205 82.3159L47.9615 101.307L61.251 101.306L74.5166 101.301L81.0872 91.8574L94.3489 91.8699L81.2126 110.741L28.1731 110.721L54.4578 72.9198L94.2433 72.9349Z" fill="url(#paint3_linear_1_475)"/>
<path d="M107.509 72.9454L120.76 72.9498L134.001 72.9522L140.646 63.4404L147.219 54.0308L120.562 54.0262L107.509 72.9454ZM94.2433 72.9349L113.985 44.5553L167.034 44.5487L140.858 82.1795L61.205 82.3159L47.9615 101.307L61.251 101.306L74.5166 101.301L81.0872 91.8574L94.3489 91.8699L81.2126 110.741L28.1731 110.721L54.4578 72.9198L94.2433 72.9349Z" fill="#FF00E5" style="mix-blend-mode:saturation"/>
<path d="M107.509 72.4285L120.76 72.433L134.001 72.4353L140.646 62.9235L147.219 53.514L120.562 53.5094L107.509 72.4285ZM94.2433 72.418L113.985 44.0385L167.034 44.0318L140.858 81.6626L61.205 81.799L47.9615 100.79L61.251 100.789L74.5166 100.784L81.0872 91.3406L94.3489 91.353L81.2126 110.224L28.1731 110.204L54.4578 72.4029L94.2433 72.418Z" fill="url(#paint4_linear_1_475)"/>
<path d="M107.509 72.4285L120.76 72.433L134.001 72.4353L140.646 62.9235L147.219 53.514L120.562 53.5094L107.509 72.4285ZM94.2433 72.418L113.985 44.0385L167.034 44.0318L140.858 81.6626L61.205 81.799L47.9615 100.79L61.251 100.789L74.5166 100.784L81.0872 91.3406L94.3489 91.353L81.2126 110.224L28.1731 110.204L54.4578 72.4029L94.2433 72.418Z" fill="#FF00E5" style="mix-blend-mode:saturation"/>
<path d="M107.509 71.9114L120.76 71.9159L134.001 71.9183L140.646 62.4065L147.219 52.9969L120.562 52.9923L107.509 71.9114ZM94.2433 71.9009L113.985 43.5214L167.034 43.5148L140.858 81.1456L61.205 81.2819L47.9615 100.273L61.251 100.272L74.5166 100.267L81.0872 90.8235L94.3489 90.8359L81.2127 109.707L28.1731 109.687L54.4578 71.8858L94.2433 71.9009Z" fill="url(#paint5_linear_1_475)"/>
<path d="M107.509 71.9114L120.76 71.9159L134.001 71.9183L140.646 62.4065L147.219 52.9969L120.562 52.9923L107.509 71.9114ZM94.2433 71.9009L113.985 43.5214L167.034 43.5148L140.858 81.1456L61.205 81.2819L47.9615 100.273L61.251 100.272L74.5166 100.267L81.0872 90.8235L94.3489 90.8359L81.2127 109.707L28.1731 109.687L54.4578 71.8858L94.2433 71.9009Z" fill="#FF00E5" style="mix-blend-mode:saturation"/>
<path d="M107.509 71.3946L120.76 71.3991L134.001 71.4014L140.646 61.8896L147.219 52.48L120.562 52.4754L107.509 71.3946ZM94.2433 71.3841L113.985 43.0045L167.034 42.9979L140.858 80.6287L61.205 80.7651L47.9615 99.7558L61.251 99.7549L74.5166 99.7501L81.0872 90.3067L94.3489 90.3191L81.2126 109.19L28.1731 109.17L54.4578 71.369L94.2433 71.3841Z" fill="url(#paint6_linear_1_475)"/>
<path d="M107.509 71.3946L120.76 71.3991L134.001 71.4014L140.646 61.8896L147.219 52.48L120.562 52.4754L107.509 71.3946ZM94.2433 71.3841L113.985 43.0045L167.034 42.9979L140.858 80.6287L61.205 80.7651L47.9615 99.7558L61.251 99.7549L74.5166 99.7501L81.0872 90.3067L94.3489 90.3191L81.2126 109.19L28.1731 109.17L54.4578 71.369L94.2433 71.3841Z" fill="#FF00E5" style="mix-blend-mode:saturation"/>
<path d="M107.509 70.8778L120.76 70.8822L134.001 70.8846L140.646 61.3728L147.219 51.9632L120.562 51.9586L107.509 70.8778ZM94.2433 70.8673L113.985 42.4877L167.034 42.4811L140.858 80.1119L61.205 80.2482L47.9615 99.2389L61.251 99.2381L74.5166 99.2333L81.0872 89.7898L94.3489 89.8022L81.2127 108.674L28.1731 108.653L54.4578 70.8522L94.2433 70.8673Z" fill="url(#paint7_linear_1_475)"/>
<path d="M107.509 70.8778L120.76 70.8822L134.001 70.8846L140.646 61.3728L147.219 51.9632L120.562 51.9586L107.509 70.8778ZM94.2433 70.8673L113.985 42.4877L167.034 42.4811L140.858 80.1119L61.205 80.2482L47.9615 99.2389L61.251 99.2381L74.5166 99.2333L81.0872 89.7898L94.3489 89.8022L81.2127 108.674L28.1731 108.653L54.4578 70.8522L94.2433 70.8673Z" fill="#FF00E5" style="mix-blend-mode:saturation"/>
<path d="M107.509 70.3609L120.76 70.3654L134.001 70.3677L140.646 60.8559L147.219 51.4463L120.562 51.4418L107.509 70.3609ZM94.2433 70.3504L113.985 41.9709L167.034 41.9642L140.858 79.595L61.205 79.7314L47.9615 98.7221L61.251 98.7212L74.5166 98.7164L81.0872 89.273L94.3489 89.2854L81.2127 108.157L28.1731 108.137L54.4578 70.3353L94.2433 70.3504Z" fill="url(#paint8_linear_1_475)"/>
<path d="M107.509 70.3609L120.76 70.3654L134.001 70.3677L140.646 60.8559L147.219 51.4463L120.562 51.4418L107.509 70.3609ZM94.2433 70.3504L113.985 41.9709L167.034 41.9642L140.858 79.595L61.205 79.7314L47.9615 98.7221L61.251 98.7212L74.5166 98.7164L81.0872 89.273L94.3489 89.2854L81.2127 108.157L28.1731 108.137L54.4578 70.3353L94.2433 70.3504Z" fill="#FF00E5" style="mix-blend-mode:saturation"/>
<path d="M107.509 69.8438L120.76 69.8483L134.001 69.8506L140.646 60.3388L147.219 50.9292L120.562 50.9247L107.509 69.8438ZM94.2433 69.8333L113.985 41.4538L167.034 41.4471L140.858 79.0779L61.205 79.2143L47.9615 98.205L61.251 98.2041L74.5166 98.1993L81.0872 88.7559L94.3489 88.7683L81.2126 107.64L28.1731 107.619L54.4578 69.8182L94.2433 69.8333Z" fill="url(#paint9_linear_1_475)"/>
<path d="M107.509 69.8438L120.76 69.8483L134.001 69.8506L140.646 60.3388L147.219 50.9292L120.562 50.9247L107.509 69.8438ZM94.2433 69.8333L113.985 41.4538L167.034 41.4471L140.858 79.0779L61.205 79.2143L47.9615 98.205L61.251 98.2041L74.5166 98.1993L81.0872 88.7559L94.3489 88.7683L81.2126 107.64L28.1731 107.619L54.4578 69.8182L94.2433 69.8333Z" fill="#FF00E5" style="mix-blend-mode:saturation"/>
<path d="M107.509 69.327L120.76 69.3314L134.001 69.3338L140.646 59.822L147.219 50.4124L120.562 50.4078L107.509 69.327ZM94.2433 69.3165L113.985 40.9369L167.034 40.9303L140.858 78.5611L61.205 78.6975L47.9615 97.6882L61.251 97.6873L74.5166 97.6825L81.0872 88.239L94.3489 88.2515L81.2127 107.123L28.1731 107.103L54.4578 69.3013L94.2433 69.3165Z" fill="url(#paint10_linear_1_475)"/>
<path d="M107.509 69.327L120.76 69.3314L134.001 69.3338L140.646 59.822L147.219 50.4124L120.562 50.4078L107.509 69.327ZM94.2433 69.3165L113.985 40.9369L167.034 40.9303L140.858 78.5611L61.205 78.6975L47.9615 97.6882L61.251 97.6873L74.5166 97.6825L81.0872 88.239L94.3489 88.2515L81.2127 107.123L28.1731 107.103L54.4578 69.3013L94.2433 69.3165Z" fill="#FF00E5" style="mix-blend-mode:saturation"/>
<path d="M107.509 68.8101L120.76 68.8146L134.001 68.8169L140.646 59.3051L147.219 49.8955L120.562 49.891L107.509 68.8101ZM94.2433 68.7996L113.985 40.4201L167.034 40.4134L140.858 78.0442L61.205 78.1806L47.9615 97.1713L61.251 97.1704L74.5166 97.1657L81.0872 87.7222L94.3489 87.7346L81.2127 106.606L28.1731 106.586L54.4578 68.7845L94.2433 68.7996Z" fill="url(#paint11_linear_1_475)"/>
<path d="M107.509 68.8101L120.76 68.8146L134.001 68.8169L140.646 59.3051L147.219 49.8955L120.562 49.891L107.509 68.8101ZM94.2433 68.7996L113.985 40.4201L167.034 40.4134L140.858 78.0442L61.205 78.1806L47.9615 97.1713L61.251 97.1704L74.5166 97.1657L81.0872 87.7222L94.3489 87.7346L81.2127 106.606L28.1731 106.586L54.4578 68.7845L94.2433 68.7996Z" fill="#FF00E5" style="mix-blend-mode:saturation"/>
<path d="M107.509 68.293L120.76 68.2975L134.001 68.2998L140.646 58.7881L147.219 49.3785L120.562 49.3739L107.509 68.293ZM94.2433 68.2825L113.985 39.903L167.034 39.8964L140.858 77.5271L61.205 77.6635L47.9615 96.6542L61.251 96.6533L74.5166 96.6486L81.0872 87.2051L94.3489 87.2175L81.2126 106.089L28.1731 106.069L54.4578 68.2674L94.2433 68.2825Z" fill="url(#paint12_linear_1_475)"/>
<path d="M107.509 68.293L120.76 68.2975L134.001 68.2998L140.646 58.7881L147.219 49.3785L120.562 49.3739L107.509 68.293ZM94.2433 68.2825L113.985 39.903L167.034 39.8964L140.858 77.5271L61.205 77.6635L47.9615 96.6542L61.251 96.6533L74.5166 96.6486L81.0872 87.2051L94.3489 87.2175L81.2126 106.089L28.1731 106.069L54.4578 68.2674L94.2433 68.2825Z" fill="#FF00E5" style="mix-blend-mode:saturation"/>
<path d="M107.509 67.7762L120.76 67.7807L134.001 67.783L140.646 58.2712L147.219 48.8616L120.562 48.857L107.509 67.7762ZM94.2433 67.7657L113.985 39.3862L167.034 39.3795L140.858 77.0103L61.205 77.1467L47.9615 96.1374L61.251 96.1365L74.5166 96.1317L81.0872 86.6882L94.3489 86.7007L81.2127 105.572L28.1731 105.552L54.4578 67.7506L94.2433 67.7657Z" fill="url(#paint13_linear_1_475)"/>
<path d="M107.509 67.7762L120.76 67.7807L134.001 67.783L140.646 58.2712L147.219 48.8616L120.562 48.857L107.509 67.7762ZM94.2433 67.7657L113.985 39.3862L167.034 39.3795L140.858 77.0103L61.205 77.1467L47.9615 96.1374L61.251 96.1365L74.5166 96.1317L81.0872 86.6882L94.3489 86.7007L81.2127 105.572L28.1731 105.552L54.4578 67.7506L94.2433 67.7657Z" fill="#FF00E5" style="mix-blend-mode:saturation"/>
<path d="M107.509 67.2593L120.76 67.2638L134.001 67.2661L140.646 57.7543L147.219 48.3448L120.562 48.3402L107.509 67.2593ZM94.2433 67.2488L113.985 38.8693L167.034 38.8626L140.858 76.4935L61.205 76.6298L47.9615 95.6205L61.251 95.6197L74.5166 95.6149L81.0872 86.1714L94.3489 86.1838L81.2126 105.055L28.1731 105.035L54.4578 67.2337L94.2433 67.2488Z" fill="url(#paint14_linear_1_475)"/>
<path d="M107.509 67.2593L120.76 67.2638L134.001 67.2661L140.646 57.7543L147.219 48.3448L120.562 48.3402L107.509 67.2593ZM94.2433 67.2488L113.985 38.8693L167.034 38.8626L140.858 76.4935L61.205 76.6298L47.9615 95.6205L61.251 95.6197L74.5166 95.6149L81.0872 86.1714L94.3489 86.1838L81.2126 105.055L28.1731 105.035L54.4578 67.2337L94.2433 67.2488Z" fill="#FF00E5" style="mix-blend-mode:saturation"/>
<path d="M107.509 66.7425L120.76 66.7469L134.001 66.7493L140.646 57.2375L147.219 47.8279L120.562 47.8233L107.509 66.7425ZM94.2433 66.732L113.985 38.3524L167.034 38.3458L140.858 75.9766L61.205 76.113L47.9615 95.1037L61.251 95.1028L74.5166 95.098L81.0872 85.6546L94.3489 85.667L81.2126 104.538L28.1731 104.518L54.4578 66.7169L94.2433 66.732Z" fill="url(#paint15_linear_1_475)"/>
<path d="M107.509 66.7425L120.76 66.7469L134.001 66.7493L140.646 57.2375L147.219 47.8279L120.562 47.8233L107.509 66.7425ZM94.2433 66.732L113.985 38.3524L167.034 38.3458L140.858 75.9766L61.205 76.113L47.9615 95.1037L61.251 95.1028L74.5166 95.098L81.0872 85.6546L94.3489 85.667L81.2126 104.538L28.1731 104.518L54.4578 66.7169L94.2433 66.732Z" fill="#FF00E5" style="mix-blend-mode:saturation"/>
<path d="M107.509 66.2254L120.76 66.2298L134.001 66.2322L140.646 56.7204L147.219 47.3108L120.562 47.3062L107.509 66.2254ZM94.2433 66.2149L113.985 37.8353L167.034 37.8287L140.858 75.4595L61.205 75.5959L47.9615 94.5866L61.251 94.5857L74.5166 94.5809L81.0872 85.1375L94.3489 85.1499L81.2126 104.021L28.1731 104.001L54.4578 66.1998L94.2433 66.2149Z" fill="url(#paint16_linear_1_475)"/>
<path d="M107.509 66.2254L120.76 66.2298L134.001 66.2322L140.646 56.7204L147.219 47.3108L120.562 47.3062L107.509 66.2254ZM94.2433 66.2149L113.985 37.8353L167.034 37.8287L140.858 75.4595L61.205 75.5959L47.9615 94.5866L61.251 94.5857L74.5166 94.5809L81.0872 85.1375L94.3489 85.1499L81.2126 104.021L28.1731 104.001L54.4578 66.1998L94.2433 66.2149Z" fill="#FF00E5" style="mix-blend-mode:saturation"/>
<path d="M107.509 65.7086L120.76 65.713L134.001 65.7154L140.646 56.2036L147.219 46.794L120.562 46.7894L107.509 65.7086ZM94.2433 65.698L113.985 37.3185L167.034 37.3119L140.858 74.9427L61.205 75.079L47.9615 94.0698L61.251 94.0689L74.5166 94.0641L81.0872 84.6206L94.3489 84.633L81.2127 103.504L28.1731 103.484L54.4578 65.6829L94.2433 65.698Z" fill="url(#paint17_linear_1_475)"/>
<path d="M107.509 65.7086L120.76 65.713L134.001 65.7154L140.646 56.2036L147.219 46.794L120.562 46.7894L107.509 65.7086ZM94.2433 65.698L113.985 37.3185L167.034 37.3119L140.858 74.9427L61.205 75.079L47.9615 94.0698L61.251 94.0689L74.5166 94.0641L81.0872 84.6206L94.3489 84.633L81.2127 103.504L28.1731 103.484L54.4578 65.6829L94.2433 65.698Z" fill="#FF00E5" style="mix-blend-mode:saturation"/>
<path d="M107.509 65.1917L120.76 65.1962L134.001 65.1985L140.646 55.6867L147.219 46.2771L120.562 46.2726L107.509 65.1917ZM94.2433 65.1812L113.985 36.8016L167.034 36.795L140.858 74.4258L61.205 74.5622L47.9615 93.5529L61.251 93.552L74.5166 93.5472L81.0872 84.1038L94.3489 84.1162L81.2127 102.988L28.1731 102.967L54.4578 65.1661L94.2433 65.1812Z" fill="url(#paint18_linear_1_475)"/>
<path d="M107.509 65.1917L120.76 65.1962L134.001 65.1985L140.646 55.6867L147.219 46.2771L120.562 46.2726L107.509 65.1917ZM94.2433 65.1812L113.985 36.8016L167.034 36.795L140.858 74.4258L61.205 74.5622L47.9615 93.5529L61.251 93.552L74.5166 93.5472L81.0872 84.1038L94.3489 84.1162L81.2127 102.988L28.1731 102.967L54.4578 65.1661L94.2433 65.1812Z" fill="#FF00E5" style="mix-blend-mode:saturation"/>
<path d="M107.509 64.6749L120.76 64.6793L134.001 64.6817L140.646 55.1699L147.219 45.7603L120.562 45.7557L107.509 64.6749ZM94.2433 64.6644L113.985 36.2848L167.034 36.2782L140.858 73.909L61.205 74.0454L47.9615 93.0361L61.251 93.0352L74.5166 93.0304L81.0872 83.5869L94.3489 83.5994L81.2127 102.471L28.1731 102.45L54.4578 64.6493L94.2433 64.6644Z" fill="url(#paint19_linear_1_475)"/>
<path d="M107.509 64.6749L120.76 64.6793L134.001 64.6817L140.646 55.1699L147.219 45.7603L120.562 45.7557L107.509 64.6749ZM94.2433 64.6644L113.985 36.2848L167.034 36.2782L140.858 73.909L61.205 74.0454L47.9615 93.0361L61.251 93.0352L74.5166 93.0304L81.0872 83.5869L94.3489 83.5994L81.2127 102.471L28.1731 102.45L54.4578 64.6493L94.2433 64.6644Z" fill="#FF00E5" style="mix-blend-mode:saturation"/>
<path d="M107.509 64.1578L120.76 64.1622L134.001 64.1646L140.646 54.6528L147.219 45.2432L120.562 45.2386L107.509 64.1578ZM94.2433 64.1473L113.985 35.7677L167.034 35.7611L140.858 73.3919L61.205 73.5283L47.9615 92.519L61.251 92.5181L74.5166 92.5133L81.0872 83.0698L94.3489 83.0823L81.2127 101.954L28.1731 101.933L54.4578 64.1322L94.2433 64.1473Z" fill="url(#paint20_linear_1_475)"/>
<path d="M107.509 64.1578L120.76 64.1622L134.001 64.1646L140.646 54.6528L147.219 45.2432L120.562 45.2386L107.509 64.1578ZM94.2433 64.1473L113.985 35.7677L167.034 35.7611L140.858 73.3919L61.205 73.5283L47.9615 92.519L61.251 92.5181L74.5166 92.5133L81.0872 83.0698L94.3489 83.0823L81.2127 101.954L28.1731 101.933L54.4578 64.1322L94.2433 64.1473Z" fill="#FF00E5" style="mix-blend-mode:saturation"/>
<path d="M107.509 63.6409L120.76 63.6454L134.001 63.6477L140.646 54.1359L147.219 44.7263L120.562 44.7218L107.509 63.6409ZM94.2433 63.6304L113.985 35.2509L167.034 35.2442L140.858 72.875L61.205 73.0114L47.9615 92.0021L61.251 92.0013L74.5166 91.9965L81.0872 82.553L94.3489 82.5654L81.2127 101.437L28.1731 101.417L54.4578 63.6153L94.2433 63.6304Z" fill="url(#paint21_linear_1_475)"/>
<path d="M107.509 63.6409L120.76 63.6454L134.001 63.6477L140.646 54.1359L147.219 44.7263L120.562 44.7218L107.509 63.6409ZM94.2433 63.6304L113.985 35.2509L167.034 35.2442L140.858 72.875L61.205 73.0114L47.9615 92.0021L61.251 92.0013L74.5166 91.9965L81.0872 82.553L94.3489 82.5654L81.2127 101.437L28.1731 101.417L54.4578 63.6153L94.2433 63.6304Z" fill="#FF00E5" style="mix-blend-mode:saturation"/>
<path d="M107.509 63.1241L120.76 63.1285L134.001 63.1309L140.646 53.6191L147.219 44.2095L120.562 44.2049L107.509 63.1241ZM94.2433 63.1136L113.985 34.734L167.034 34.7274L140.858 72.3582L61.205 72.4946L47.9615 91.4853L61.251 91.4844L74.5166 91.4796L81.0872 82.0361L94.3489 82.0486L81.2127 100.92L28.1731 100.9L54.4578 63.0985L94.2433 63.1136Z" fill="url(#paint22_linear_1_475)"/>
<path d="M107.509 63.1241L120.76 63.1285L134.001 63.1309L140.646 53.6191L147.219 44.2095L120.562 44.2049L107.509 63.1241ZM94.2433 63.1136L113.985 34.734L167.034 34.7274L140.858 72.3582L61.205 72.4946L47.9615 91.4853L61.251 91.4844L74.5166 91.4796L81.0872 82.0361L94.3489 82.0486L81.2127 100.92L28.1731 100.9L54.4578 63.0985L94.2433 63.1136Z" fill="#FF00E5" style="mix-blend-mode:saturation"/>
<path d="M107.509 62.6072L120.76 62.6117L134.001 62.614L140.646 53.1023L147.219 43.6927L120.562 43.6881L107.509 62.6072ZM94.2433 62.5967L113.985 34.2172L167.034 34.2106L140.858 71.8414L61.205 71.9777L47.9615 90.9684L61.251 90.9676L74.5166 90.9628L81.0872 81.5193L94.3489 81.5317L81.2126 100.403L28.1731 100.383L54.4578 62.5816L94.2433 62.5967Z" fill="url(#paint23_linear_1_475)"/>
<path d="M107.509 62.6072L120.76 62.6117L134.001 62.614L140.646 53.1023L147.219 43.6927L120.562 43.6881L107.509 62.6072ZM94.2433 62.5967L113.985 34.2172L167.034 34.2106L140.858 71.8414L61.205 71.9777L47.9615 90.9684L61.251 90.9676L74.5166 90.9628L81.0872 81.5193L94.3489 81.5317L81.2126 100.403L28.1731 100.383L54.4578 62.5816L94.2433 62.5967Z" fill="#FF00E5" style="mix-blend-mode:saturation"/>
<path d="M107.509 62.0902L120.76 62.0946L134.001 62.097L140.646 52.5852L147.219 43.1756L120.562 43.171L107.509 62.0902ZM94.2433 62.0796L113.985 33.7001L167.034 33.6935L140.858 71.3243L61.205 71.4606L47.9615 90.4513L61.251 90.4505L74.5166 90.4457L81.0872 81.0022L94.3489 81.0146L81.2127 99.886L28.1731 99.8658L54.4578 62.0645L94.2433 62.0796Z" fill="url(#paint24_linear_1_475)"/>
<path d="M107.509 62.0902L120.76 62.0946L134.001 62.097L140.646 52.5852L147.219 43.1756L120.562 43.171L107.509 62.0902ZM94.2433 62.0796L113.985 33.7001L167.034 33.6935L140.858 71.3243L61.205 71.4606L47.9615 90.4513L61.251 90.4505L74.5166 90.4457L81.0872 81.0022L94.3489 81.0146L81.2127 99.886L28.1731 99.8658L54.4578 62.0645L94.2433 62.0796Z" fill="#FF00E5" style="mix-blend-mode:saturation"/>
<path d="M107.509 61.5733L120.76 61.5778L134.001 61.5801L140.646 52.0683L147.219 42.6587L120.562 42.6541L107.509 61.5733ZM94.2433 61.5628L113.985 33.1832L167.034 33.1766L140.858 70.8074L61.205 70.9438L47.9615 89.9345L61.251 89.9336L74.5166 89.9288L81.0872 80.4854L94.3489 80.4978L81.2127 99.3692L28.1731 99.3489L54.4578 61.5477L94.2433 61.5628Z" fill="url(#paint25_linear_1_475)"/>
<path d="M107.509 61.5733L120.76 61.5778L134.001 61.5801L140.646 52.0683L147.219 42.6587L120.562 42.6541L107.509 61.5733ZM94.2433 61.5628L113.985 33.1832L167.034 33.1766L140.858 70.8074L61.205 70.9438L47.9615 89.9345L61.251 89.9336L74.5166 89.9288L81.0872 80.4854L94.3489 80.4978L81.2127 99.3692L28.1731 99.3489L54.4578 61.5477L94.2433 61.5628Z" fill="#FF00E5" style="mix-blend-mode:saturation"/>
<path d="M107.509 61.0565L120.76 61.0609L134.001 61.0633L140.646 51.5515L147.219 42.1419L120.562 42.1373L107.509 61.0565ZM94.2433 61.0459L113.985 32.6664L167.034 32.6597L140.858 70.2906L61.205 70.4269L47.9615 89.4177L61.251 89.4168L74.5166 89.412L81.0872 79.9685L94.3489 79.9809L81.2127 98.8523L28.1731 98.8321L54.4578 61.0308L94.2433 61.0459Z" fill="url(#paint26_linear_1_475)"/>
<path d="M107.509 61.0565L120.76 61.0609L134.001 61.0633L140.646 51.5515L147.219 42.1419L120.562 42.1373L107.509 61.0565ZM94.2433 61.0459L113.985 32.6664L167.034 32.6597L140.858 70.2906L61.205 70.4269L47.9615 89.4177L61.251 89.4168L74.5166 89.412L81.0872 79.9685L94.3489 79.9809L81.2127 98.8523L28.1731 98.8321L54.4578 61.0308L94.2433 61.0459Z" fill="#FF00E5" style="mix-blend-mode:saturation"/>
<path d="M107.509 60.5396L120.76 60.5441L134.001 60.5464L140.646 51.0346L147.219 41.6251L120.562 41.6205L107.509 60.5396ZM94.2433 60.5291L113.985 32.1496L167.034 32.143L140.858 69.7737L61.205 69.9101L47.9615 88.9008L61.251 88.8999L74.5166 88.8951L81.0872 79.4517L94.3489 79.4641L81.2127 98.3355L28.1731 98.3152L54.4578 60.514L94.2433 60.5291Z" fill="url(#paint27_linear_1_475)"/>
<path d="M107.509 60.5396L120.76 60.5441L134.001 60.5464L140.646 51.0346L147.219 41.6251L120.562 41.6205L107.509 60.5396ZM94.2433 60.5291L113.985 32.1496L167.034 32.143L140.858 69.7737L61.205 69.9101L47.9615 88.9008L61.251 88.8999L74.5166 88.8951L81.0872 79.4517L94.3489 79.4641L81.2127 98.3355L28.1731 98.3152L54.4578 60.514L94.2433 60.5291Z" fill="#FF00E5" style="mix-blend-mode:saturation"/>
<path d="M107.509 60.0225L120.76 60.027L134.001 60.0293L140.646 50.5176L147.219 41.108L120.562 41.1034L107.509 60.0225ZM94.2434 60.012L113.985 31.6325L167.034 31.6259L140.858 69.2566L61.205 69.393L47.9616 88.3837L61.251 88.3828L74.5166 88.3781L81.0872 78.9346L94.3489 78.947L81.2127 97.8184L28.1731 97.7981L54.4578 59.9969L94.2434 60.012Z" fill="url(#paint28_linear_1_475)"/>
<path d="M107.509 60.0225L120.76 60.027L134.001 60.0293L140.646 50.5176L147.219 41.108L120.562 41.1034L107.509 60.0225ZM94.2434 60.012L113.985 31.6325L167.034 31.6259L140.858 69.2566L61.205 69.393L47.9616 88.3837L61.251 88.3828L74.5166 88.3781L81.0872 78.9346L94.3489 78.947L81.2127 97.8184L28.1731 97.7981L54.4578 59.9969L94.2434 60.012Z" fill="#FF00E5" style="mix-blend-mode:saturation"/>
<path d="M107.509 59.5057L120.76 59.5102L134.001 59.5125L140.646 50.0007L147.219 40.5911L120.562 40.5866L107.509 59.5057ZM94.2434 59.4952L113.985 31.1157L167.034 31.109L140.858 68.7398L61.205 68.8762L47.9616 87.8669L61.251 87.866L74.5166 87.8612L81.0872 78.4177L94.3489 78.4302L81.2127 97.3015L28.1731 97.2813L54.4578 59.4801L94.2434 59.4952Z" fill="url(#paint29_linear_1_475)"/>
<path d="M107.509 59.5057L120.76 59.5102L134.001 59.5125L140.646 50.0007L147.219 40.5911L120.562 40.5866L107.509 59.5057ZM94.2434 59.4952L113.985 31.1157L167.034 31.109L140.858 68.7398L61.205 68.8762L47.9616 87.8669L61.251 87.866L74.5166 87.8612L81.0872 78.4177L94.3489 78.4302L81.2127 97.3015L28.1731 97.2813L54.4578 59.4801L94.2434 59.4952Z" fill="#FF00E5" style="mix-blend-mode:saturation"/>
<path d="M107.509 58.9888L120.76 58.9933L134.001 58.9956L140.646 49.4838L147.219 40.0743L120.562 40.0697L107.509 58.9888ZM94.2433 58.9783L113.985 30.5988L167.034 30.5922L140.858 68.2229L61.205 68.3593L47.9615 87.35L61.251 87.3491L74.5166 87.3444L81.0872 77.9009L94.3489 77.9133L81.2127 96.7847L28.1731 96.7645L54.4578 58.9632L94.2433 58.9783Z" fill="url(#paint30_linear_1_475)"/>
<path d="M107.509 58.9888L120.76 58.9933L134.001 58.9956L140.646 49.4838L147.219 40.0743L120.562 40.0697L107.509 58.9888ZM94.2433 58.9783L113.985 30.5988L167.034 30.5922L140.858 68.2229L61.205 68.3593L47.9615 87.35L61.251 87.3491L74.5166 87.3444L81.0872 77.9009L94.3489 77.9133L81.2127 96.7847L28.1731 96.7645L54.4578 58.9632L94.2433 58.9783Z" fill="#FF00E5" style="mix-blend-mode:saturation"/>
<path d="M107.509 58.4717L120.76 58.4762L134.001 58.4785L140.646 48.9667L147.219 39.5572L120.562 39.5526L107.509 58.4717ZM94.2433 58.4612L113.985 30.0817L167.034 30.0751L140.858 67.7059L61.205 67.8422L47.9615 86.8329L61.251 86.8321L74.5166 86.8273L81.0872 77.3838L94.3489 77.3962L81.2127 96.2676L28.1731 96.2474L54.4578 58.4461L94.2433 58.4612Z" fill="url(#paint31_linear_1_475)"/>
<path d="M107.509 58.4717L120.76 58.4762L134.001 58.4785L140.646 48.9667L147.219 39.5572L120.562 39.5526L107.509 58.4717ZM94.2433 58.4612L113.985 30.0817L167.034 30.0751L140.858 67.7059L61.205 67.8422L47.9615 86.8329L61.251 86.8321L74.5166 86.8273L81.0872 77.3838L94.3489 77.3962L81.2127 96.2676L28.1731 96.2474L54.4578 58.4461L94.2433 58.4612Z" fill="#FF00E5" style="mix-blend-mode:saturation"/>
<path d="M107.509 57.9549L120.76 57.9594L134.001 57.9617L140.646 48.4499L147.219 39.0403L120.562 39.0357L107.509 57.9549ZM94.2433 57.9444L113.985 29.5648L167.034 29.5582L140.858 67.189L61.205 67.3254L47.9615 86.3161L61.251 86.3152L74.5166 86.3104L81.0872 76.867L94.3489 76.8794L81.2127 95.7508L28.1731 95.7305L54.4578 57.9293L94.2433 57.9444Z" fill="url(#paint32_linear_1_475)"/>
<path d="M107.509 57.9549L120.76 57.9594L134.001 57.9617L140.646 48.4499L147.219 39.0403L120.562 39.0357L107.509 57.9549ZM94.2433 57.9444L113.985 29.5648L167.034 29.5582L140.858 67.189L61.205 67.3254L47.9615 86.3161L61.251 86.3152L74.5166 86.3104L81.0872 76.867L94.3489 76.8794L81.2127 95.7508L28.1731 95.7305L54.4578 57.9293L94.2433 57.9444Z" fill="#FF00E5" style="mix-blend-mode:saturation"/>
<path d="M107.509 57.4381L120.76 57.4425L134.001 57.4449L140.646 47.9331L147.219 38.5235L120.562 38.5189L107.509 57.4381ZM94.2433 57.4275L113.985 29.048L167.034 29.0414L140.858 66.6722L61.205 66.8085L47.9615 85.7992L61.251 85.7984L74.5166 85.7936L81.0872 76.3501L94.3489 76.3625L81.2127 95.2339L28.1731 95.2137L54.4578 57.4124L94.2433 57.4275Z" fill="url(#paint33_linear_1_475)"/>
<path d="M107.509 57.4381L120.76 57.4425L134.001 57.4449L140.646 47.9331L147.219 38.5235L120.562 38.5189L107.509 57.4381ZM94.2433 57.4275L113.985 29.048L167.034 29.0414L140.858 66.6722L61.205 66.8085L47.9615 85.7992L61.251 85.7984L74.5166 85.7936L81.0872 76.3501L94.3489 76.3625L81.2127 95.2339L28.1731 95.2137L54.4578 57.4124L94.2433 57.4275Z" fill="#FF00E5" style="mix-blend-mode:saturation"/>
<path d="M107.509 56.9212L120.76 56.9257L134.001 56.928L140.646 47.4162L147.219 38.0067L120.562 38.0021L107.509 56.9212ZM94.2433 56.9107L113.985 28.5312L167.034 28.5246L140.858 66.1553L61.205 66.2917L47.9615 85.2824L61.251 85.2815L74.5166 85.2767L81.0872 75.8333L94.3489 75.8457L81.2126 94.7171L28.1731 94.6968L54.4578 56.8956L94.2433 56.9107Z" fill="url(#paint34_linear_1_475)"/>
<path d="M107.509 56.9212L120.76 56.9257L134.001 56.928L140.646 47.4162L147.219 38.0067L120.562 38.0021L107.509 56.9212ZM94.2433 56.9107L113.985 28.5312L167.034 28.5246L140.858 66.1553L61.205 66.2917L47.9615 85.2824L61.251 85.2815L74.5166 85.2767L81.0872 75.8333L94.3489 75.8457L81.2126 94.7171L28.1731 94.6968L54.4578 56.8956L94.2433 56.9107Z" fill="#FF00E5" style="mix-blend-mode:saturation"/>
<path d="M107.509 56.4041L120.76 56.4086L134.001 56.4109L140.646 46.8991L147.219 37.4895L120.562 37.485L107.509 56.4041ZM94.2433 56.3936L113.985 28.0141L167.034 28.0074L140.858 65.6382L61.205 65.7746L47.9615 84.7653L61.251 84.7644L74.5166 84.7596L81.0872 75.3162L94.3489 75.3286L81.2127 94.2L28.1731 94.1797L54.4578 56.3785L94.2433 56.3936Z" fill="url(#paint35_linear_1_475)"/>
<path d="M107.509 56.4041L120.76 56.4086L134.001 56.4109L140.646 46.8991L147.219 37.4895L120.562 37.485L107.509 56.4041ZM94.2433 56.3936L113.985 28.0141L167.034 28.0074L140.858 65.6382L61.205 65.7746L47.9615 84.7653L61.251 84.7644L74.5166 84.7596L81.0872 75.3162L94.3489 75.3286L81.2127 94.2L28.1731 94.1797L54.4578 56.3785L94.2433 56.3936Z" fill="#FF00E5" style="mix-blend-mode:saturation"/>
<path d="M107.509 55.8873L120.76 55.8917L134.001 55.8941L140.646 46.3823L147.219 36.9727L120.562 36.9681L107.509 55.8873ZM94.2433 55.8768L113.985 27.4972L167.034 27.4906L140.858 65.1214L61.205 65.2578L47.9615 84.2485L61.251 84.2476L74.5166 84.2428L81.0872 74.7993L94.3489 74.8118L81.2127 93.6831L28.1731 93.6629L54.4578 55.8617L94.2433 55.8768Z" fill="url(#paint36_linear_1_475)"/>
<path d="M107.509 55.8873L120.76 55.8917L134.001 55.8941L140.646 46.3823L147.219 36.9727L120.562 36.9681L107.509 55.8873ZM94.2433 55.8768L113.985 27.4972L167.034 27.4906L140.858 65.1214L61.205 65.2578L47.9615 84.2485L61.251 84.2476L74.5166 84.2428L81.0872 74.7993L94.3489 74.8118L81.2127 93.6831L28.1731 93.6629L54.4578 55.8617L94.2433 55.8768Z" fill="#FF00E5" style="mix-blend-mode:saturation"/>
<path d="M107.509 55.3704L120.76 55.3749L134.001 55.3772L140.646 45.8654L147.219 36.4558L120.562 36.4513L107.509 55.3704ZM94.2433 55.3599L113.985 26.9804L167.034 26.9737L140.858 64.6045L61.205 64.7409L47.9615 83.7316L61.251 83.7307L74.5166 83.726L81.0872 74.2825L94.3489 74.2949L81.2127 93.1663L28.1731 93.146L54.4578 55.3448L94.2433 55.3599Z" fill="url(#paint37_linear_1_475)"/>
<path d="M107.509 55.3704L120.76 55.3749L134.001 55.3772L140.646 45.8654L147.219 36.4558L120.562 36.4513L107.509 55.3704ZM94.2433 55.3599L113.985 26.9804L167.034 26.9737L140.858 64.6045L61.205 64.7409L47.9615 83.7316L61.251 83.7307L74.5166 83.726L81.0872 74.2825L94.3489 74.2949L81.2127 93.1663L28.1731 93.146L54.4578 55.3448L94.2433 55.3599Z" fill="#FF00E5" style="mix-blend-mode:saturation"/>
<path d="M107.509 54.8536L120.76 54.8581L134.001 54.8604L140.646 45.3486L147.219 35.939L120.562 35.9345L107.509 54.8536ZM94.2433 54.8431L113.985 26.4636L167.034 26.4569L140.858 64.0877L61.205 64.2241L47.9615 83.2148L61.251 83.2139L74.5166 83.2091L81.0872 73.7656L94.3489 73.7781L81.2127 92.6494L28.1731 92.6292L54.4578 54.828L94.2433 54.8431Z" fill="url(#paint38_linear_1_475)"/>
<path d="M107.509 54.8536L120.76 54.8581L134.001 54.8604L140.646 45.3486L147.219 35.939L120.562 35.9345L107.509 54.8536ZM94.2433 54.8431L113.985 26.4636L167.034 26.4569L140.858 64.0877L61.205 64.2241L47.9615 83.2148L61.251 83.2139L74.5166 83.2091L81.0872 73.7656L94.3489 73.7781L81.2127 92.6494L28.1731 92.6292L54.4578 54.828L94.2433 54.8431Z" fill="#FF00E5" style="mix-blend-mode:saturation"/>
<path d="M107.509 54.3365L120.76 54.341L134.001 54.3433L140.646 44.8315L147.219 35.4219L120.562 35.4173L107.509 54.3365ZM94.2433 54.326L113.985 25.9464L167.034 25.9398L140.858 63.5706L61.205 63.707L47.9615 82.6977L61.251 82.6968L74.5166 82.692L81.0872 73.2486L94.3489 73.261L81.2126 92.1324L28.1731 92.1121L54.4578 54.3109L94.2433 54.326Z" fill="url(#paint39_linear_1_475)"/>
<path d="M107.509 54.3365L120.76 54.341L134.001 54.3433L140.646 44.8315L147.219 35.4219L120.562 35.4173L107.509 54.3365ZM94.2433 54.326L113.985 25.9464L167.034 25.9398L140.858 63.5706L61.205 63.707L47.9615 82.6977L61.251 82.6968L74.5166 82.692L81.0872 73.2486L94.3489 73.261L81.2126 92.1324L28.1731 92.1121L54.4578 54.3109L94.2433 54.326Z" fill="#FF00E5" style="mix-blend-mode:saturation"/>
<path d="M107.509 53.8196L120.76 53.8241L134.001 53.8265L140.646 44.3147L147.219 34.9051L120.562 34.9005L107.509 53.8196ZM94.2433 53.8091L113.985 25.4296L167.034 25.423L140.858 63.0538L61.205 63.1901L47.9615 82.1808L61.251 82.18L74.5166 82.1752L81.0872 72.7317L94.3489 72.7441L81.2127 91.6155L28.1731 91.5953L54.4578 53.794L94.2433 53.8091Z" fill="url(#paint40_linear_1_475)"/>
<path d="M107.509 53.8196L120.76 53.8241L134.001 53.8265L140.646 44.3147L147.219 34.9051L120.562 34.9005L107.509 53.8196ZM94.2433 53.8091L113.985 25.4296L167.034 25.423L140.858 63.0538L61.205 63.1901L47.9615 82.1808L61.251 82.18L74.5166 82.1752L81.0872 72.7317L94.3489 72.7441L81.2127 91.6155L28.1731 91.5953L54.4578 53.794L94.2433 53.8091Z" fill="#FF00E5" style="mix-blend-mode:saturation"/>
<path d="M107.509 53.3028L120.76 53.3073L134.001 53.3096L140.646 43.7978L147.219 34.3882L120.562 34.3837L107.509 53.3028ZM94.2433 53.2923L113.985 24.9128L167.034 24.9061L140.858 62.5369L61.205 62.6733L47.9615 81.664L61.251 81.6631L74.5166 81.6583L81.0872 72.2149L94.3489 72.2273L81.2127 91.0987L28.1731 91.0784L54.4578 53.2772L94.2433 53.2923Z" fill="url(#paint41_linear_1_475)"/>
<path d="M107.509 53.3028L120.76 53.3073L134.001 53.3096L140.646 43.7978L147.219 34.3882L120.562 34.3837L107.509 53.3028ZM94.2433 53.2923L113.985 24.9128L167.034 24.9061L140.858 62.5369L61.205 62.6733L47.9615 81.664L61.251 81.6631L74.5166 81.6583L81.0872 72.2149L94.3489 72.2273L81.2127 91.0987L28.1731 91.0784L54.4578 53.2772L94.2433 53.2923Z" fill="#FF00E5" style="mix-blend-mode:saturation"/>
<path d="M107.509 52.7859L120.76 52.7904L134.001 52.7927L140.646 43.2809L147.219 33.8713L120.562 33.8668L107.509 52.7859ZM94.2433 52.7754L113.985 24.3959L167.034 24.3892L140.858 62.0201L61.205 62.1564L47.9615 81.1472L61.251 81.1463L74.5166 81.1415L81.0872 71.698L94.3489 71.7104L81.2126 90.5818L28.1731 90.5616L54.4578 52.7603L94.2433 52.7754Z" fill="url(#paint42_linear_1_475)"/>
<path d="M107.509 52.7859L120.76 52.7904L134.001 52.7927L140.646 43.2809L147.219 33.8713L120.562 33.8668L107.509 52.7859ZM94.2433 52.7754L113.985 24.3959L167.034 24.3892L140.858 62.0201L61.205 62.1564L47.9615 81.1472L61.251 81.1463L74.5166 81.1415L81.0872 71.698L94.3489 71.7104L81.2126 90.5818L28.1731 90.5616L54.4578 52.7603L94.2433 52.7754Z" fill="#FF00E5" style="mix-blend-mode:saturation"/>
<path d="M107.509 52.2689L120.76 52.2733L134.001 52.2757L140.646 42.7639L147.219 33.3543L120.562 33.3497L107.509 52.2689ZM94.2433 52.2584L113.985 23.8788L167.034 23.8722L140.858 61.503L61.205 61.6394L47.9615 80.6301L61.251 80.6292L74.5166 80.6244L81.0872 71.1809L94.3489 71.1934L81.2127 90.0647L28.1731 90.0445L54.4578 52.2432L94.2433 52.2584Z" fill="url(#paint43_linear_1_475)"/>
<path d="M107.509 52.2689L120.76 52.2733L134.001 52.2757L140.646 42.7639L147.219 33.3543L120.562 33.3497L107.509 52.2689ZM94.2433 52.2584L113.985 23.8788L167.034 23.8722L140.858 61.503L61.205 61.6394L47.9615 80.6301L61.251 80.6292L74.5166 80.6244L81.0872 71.1809L94.3489 71.1934L81.2127 90.0647L28.1731 90.0445L54.4578 52.2432L94.2433 52.2584Z" fill="#FF00E5" style="mix-blend-mode:saturation"/>
<path d="M107.509 51.752L120.76 51.7565L134.001 51.7588L140.646 42.247L147.219 32.8374L120.562 32.8329L107.509 51.752ZM94.2433 51.7415L113.985 23.362L167.034 23.3553L140.858 60.9861L61.205 61.1225L47.9615 80.1132L61.251 80.1123L74.5166 80.1075L81.0872 70.6641L94.3489 70.6765L81.2127 89.5479L28.1731 89.5276L54.4578 51.7264L94.2433 51.7415Z" fill="url(#paint44_linear_1_475)"/>
<path d="M107.509 51.752L120.76 51.7565L134.001 51.7588L140.646 42.247L147.219 32.8374L120.562 32.8329L107.509 51.752ZM94.2433 51.7415L113.985 23.362L167.034 23.3553L140.858 60.9861L61.205 61.1225L47.9615 80.1132L61.251 80.1123L74.5166 80.1075L81.0872 70.6641L94.3489 70.6765L81.2127 89.5479L28.1731 89.5276L54.4578 51.7264L94.2433 51.7415Z" fill="#FF00E5" style="mix-blend-mode:saturation"/>
<path d="M107.509 51.2352L120.76 51.2397L134.001 51.242L140.646 41.7302L147.219 32.3206L120.562 32.3161L107.509 51.2352ZM94.2433 51.2247L113.985 22.8452L167.034 22.8385L140.858 60.4693L61.205 60.6057L47.9615 79.5963L61.251 79.5955L74.5166 79.5907L81.0872 70.1472L94.3489 70.1597L81.2127 89.031L28.1731 89.0108L54.4578 51.2096L94.2433 51.2247Z" fill="url(#paint45_linear_1_475)"/>
<path d="M107.509 51.2352L120.76 51.2397L134.001 51.242L140.646 41.7302L147.219 32.3206L120.562 32.3161L107.509 51.2352ZM94.2433 51.2247L113.985 22.8452L167.034 22.8385L140.858 60.4693L61.205 60.6057L47.9615 79.5963L61.251 79.5955L74.5166 79.5907L81.0872 70.1472L94.3489 70.1597L81.2127 89.031L28.1731 89.0108L54.4578 51.2096L94.2433 51.2247Z" fill="#FF00E5" style="mix-blend-mode:saturation"/>
<path d="M107.509 50.7183L120.76 50.7228L134.001 50.7251L140.646 41.2134L147.219 31.8038L120.562 31.7992L107.509 50.7183ZM94.2433 50.7078L113.985 22.3283L167.034 22.3217L140.858 59.9524L61.205 60.0888L47.9615 79.0795L61.251 79.0786L74.5166 79.0739L81.0872 69.6304L94.3489 69.6428L81.2127 88.5142L28.1731 88.4939L54.4578 50.6927L94.2433 50.7078Z" fill="url(#paint46_linear_1_475)"/>
<path d="M107.509 50.7183L120.76 50.7228L134.001 50.7251L140.646 41.2134L147.219 31.8038L120.562 31.7992L107.509 50.7183ZM94.2433 50.7078L113.985 22.3283L167.034 22.3217L140.858 59.9524L61.205 60.0888L47.9615 79.0795L61.251 79.0786L74.5166 79.0739L81.0872 69.6304L94.3489 69.6428L81.2127 88.5142L28.1731 88.4939L54.4578 50.6927L94.2433 50.7078Z" fill="#FF00E5" style="mix-blend-mode:saturation"/>
<path d="M107.509 50.2012L120.76 50.2057L134.001 50.208L140.646 40.6962L147.219 31.2867L120.562 31.2821L107.509 50.2012ZM94.2433 50.1907L113.985 21.8112L167.034 21.8045L140.858 59.4353L61.205 59.5717L47.9615 78.5624L61.251 78.5616L74.5166 78.5568L81.0872 69.1133L94.3489 69.1257L81.2126 87.9971L28.1731 87.9769L54.4578 50.1756L94.2433 50.1907Z" fill="url(#paint47_linear_1_475)"/>
<path d="M107.509 50.2012L120.76 50.2057L134.001 50.208L140.646 40.6962L147.219 31.2867L120.562 31.2821L107.509 50.2012ZM94.2433 50.1907L113.985 21.8112L167.034 21.8045L140.858 59.4353L61.205 59.5717L47.9615 78.5624L61.251 78.5616L74.5166 78.5568L81.0872 69.1133L94.3489 69.1257L81.2126 87.9971L28.1731 87.9769L54.4578 50.1756L94.2433 50.1907Z" fill="#FF00E5" style="mix-blend-mode:saturation"/>
<path d="M107.509 49.6844L120.76 49.6889L134.001 49.6912L140.646 40.1794L147.219 30.7698L120.562 30.7653L107.509 49.6844ZM94.2433 49.6739L113.985 21.2944L167.034 21.2877L140.858 58.9185L61.205 59.0549L47.9615 78.0456L61.251 78.0447L74.5166 78.0399L81.0872 68.5964L94.3489 68.6089L81.2127 87.4802L28.1731 87.46L54.4578 49.6588L94.2433 49.6739Z" fill="url(#paint48_linear_1_475)"/>
<path d="M107.509 49.6844L120.76 49.6889L134.001 49.6912L140.646 40.1794L147.219 30.7698L120.562 30.7653L107.509 49.6844ZM94.2433 49.6739L113.985 21.2944L167.034 21.2877L140.858 58.9185L61.205 59.0549L47.9615 78.0456L61.251 78.0447L74.5166 78.0399L81.0872 68.5964L94.3489 68.6089L81.2127 87.4802L28.1731 87.46L54.4578 49.6588L94.2433 49.6739Z" fill="#FF00E5" style="mix-blend-mode:saturation"/>
<path d="M107.509 49.1676L120.76 49.172L134.001 49.1744L140.646 39.6626L147.219 30.253L120.562 30.2484L107.509 49.1676ZM94.2433 49.1571L113.985 20.7775L167.034 20.7709L140.858 58.4017L61.205 58.538L47.9615 77.5287L61.251 77.5279L74.5166 77.5231L81.0872 68.0796L94.3489 68.092L81.2127 86.9634L28.1731 86.9432L54.4578 49.1419L94.2433 49.1571Z" fill="url(#paint49_linear_1_475)"/>
<path d="M107.509 49.1676L120.76 49.172L134.001 49.1744L140.646 39.6626L147.219 30.253L120.562 30.2484L107.509 49.1676ZM94.2433 49.1571L113.985 20.7775L167.034 20.7709L140.858 58.4017L61.205 58.538L47.9615 77.5287L61.251 77.5279L74.5166 77.5231L81.0872 68.0796L94.3489 68.092L81.2127 86.9634L28.1731 86.9432L54.4578 49.1419L94.2433 49.1571Z" fill="#FF00E5" style="mix-blend-mode:saturation"/>
<path d="M107.509 48.6507L120.76 48.6552L134.001 48.6575L140.646 39.1457L147.219 29.7361L120.562 29.7316L107.509 48.6507ZM94.2433 48.6402L113.985 20.2607L167.034 20.254L140.858 57.8848L61.205 58.0212L47.9615 77.0119L61.251 77.011L74.5166 77.0062L81.0872 67.5628L94.3489 67.5752L81.2127 86.4465L28.1731 86.4263L54.4578 48.6251L94.2433 48.6402Z" fill="url(#paint50_linear_1_475)"/>
<path d="M107.509 48.6507L120.76 48.6552L134.001 48.6575L140.646 39.1457L147.219 29.7361L120.562 29.7316L107.509 48.6507ZM94.2433 48.6402L113.985 20.2607L167.034 20.254L140.858 57.8848L61.205 58.0212L47.9615 77.0119L61.251 77.011L74.5166 77.0062L81.0872 67.5628L94.3489 67.5752L81.2127 86.4465L28.1731 86.4263L54.4578 48.6251L94.2433 48.6402Z" fill="#FF00E5" style="mix-blend-mode:saturation"/>
<path d="M107.509 48.1336L120.76 48.1381L134.001 48.1404L140.646 38.6286L147.219 29.2191L120.562 29.2145L107.509 48.1336ZM94.2433 48.1231L113.985 19.7436L167.034 19.737L140.858 57.3677L61.205 57.5041L47.9615 76.4948L61.251 76.4939L74.5166 76.4891L81.0872 67.0457L94.3489 67.0581L81.2127 85.9295L28.1731 85.9092L54.4578 48.108L94.2433 48.1231Z" fill="url(#paint51_linear_1_475)"/>
<path d="M107.509 48.1336L120.76 48.1381L134.001 48.1404L140.646 38.6286L147.219 29.2191L120.562 29.2145L107.509 48.1336ZM94.2433 48.1231L113.985 19.7436L167.034 19.737L140.858 57.3677L61.205 57.5041L47.9615 76.4948L61.251 76.4939L74.5166 76.4891L81.0872 67.0457L94.3489 67.0581L81.2127 85.9295L28.1731 85.9092L54.4578 48.108L94.2433 48.1231Z" fill="#FF00E5" style="mix-blend-mode:saturation"/>
<path d="M107.509 47.6168L120.76 47.6212L134.001 47.6236L140.646 38.1118L147.219 28.7022L120.562 28.6976L107.509 47.6168ZM94.2433 47.6063L113.985 19.2267L167.034 19.2201L140.858 56.8509L61.205 56.9872L47.9615 75.978L61.251 75.9771L74.5166 75.9723L81.0872 66.5288L94.3489 66.5413L81.2126 85.4126L28.1731 85.3924L54.4578 47.5911L94.2433 47.6063Z" fill="url(#paint52_linear_1_475)" style="mix-blend-mode:soft-light"/>
<path d="M107.509 47.6168L120.76 47.6212L134.001 47.6236L140.646 38.1118L147.219 28.7022L120.562 28.6976L107.509 47.6168ZM94.2433 47.6063L113.985 19.2267L167.034 19.2201L140.858 56.8509L61.205 56.9872L47.9615 75.978L61.251 75.9771L74.5166 75.9723L81.0872 66.5288L94.3489 66.5413L81.2126 85.4126L28.1731 85.3924L54.4578 47.5911L94.2433 47.6063Z" fill="#FF00E5" style="mix-blend-mode:saturation"/>
<defs>
<filter id="filter0_ddd_1_475" x="0.504709" y="34.773" width="194.198" height="121.529" filterUnits="userSpaceOnUse" color-interpolation-filters="sRGB">
<feFlood flood-opacity="0" result="BackgroundImageFix"/>
<feColorMatrix in="SourceAlpha" type="matrix" values="0 0 0 0 0 0 0 0 0 0 0 0 0 0 0 0 0 0 127 0" result="hardAlpha"/>
<feOffset dy="9.96062"/>
<feGaussianBlur stdDeviation="4.15026"/>
<feColorMatrix type="matrix" values="0 0 0 0 0.541176 0 0 0 0 0.192157 0 0 0 0 0.784314 0 0 0 0.2 0"/>
<feBlend mode="normal" in2="BackgroundImageFix" result="effect1_dropShadow_1_475"/>
<feColorMatrix in="SourceAlpha" type="matrix" values="0 0 0 0 0 0 0 0 0 0 0 0 0 0 0 0 0 0 127 0" result="hardAlpha"/>
<feOffset dy="13.8342"/>
<feGaussianBlur stdDeviation="8.30052"/>
<feColorMatrix type="matrix" values="0 0 0 0 0.541176 0 0 0 0 0.192157 0 0 0 0 0.784314 0 0 0 0.25 0"/>
<feBlend mode="normal" in2="effect1_dropShadow_1_475" result="effect2_dropShadow_1_475"/>
<feColorMatrix in="SourceAlpha" type="matrix" values="0 0 0 0 0 0 0 0 0 0 0 0 0 0 0 0 0 0 127 0" result="hardAlpha"/>
<feOffset dy="16.601"/>
<feGaussianBlur stdDeviation="13.8342"/>
<feColorMatrix type="matrix" values="0 0 0 0 0.746667 0 0 0 0 0.418438 0 0 0 0 0.975 0 0 0 0.2 0"/>
<feBlend mode="normal" in2="effect2_dropShadow_1_475" result="effect3_dropShadow_1_475"/>
<feBlend mode="normal" in="SourceGraphic" in2="effect3_dropShadow_1_475" result="shape"/>
</filter>
<linearGradient id="paint0_linear_1_475" x1="152.677" y1="35.8868" x2="149.466" y2="121.829" gradientUnits="userSpaceOnUse">
<stop stop-color="#04FDEE"/>
<stop offset="1" stop-color="#8A31C8"/>
</linearGradient>
<linearGradient id="paint1_linear_1_475" x1="152.677" y1="35.6288" x2="149.466" y2="121.571" gradientUnits="userSpaceOnUse">
<stop stop-color="#04FDEE"/>
<stop offset="1" stop-color="#8A31C8"/>
</linearGradient>
<linearGradient id="paint2_linear_1_475" x1="152.677" y1="35.1119" x2="149.466" y2="121.054" gradientUnits="userSpaceOnUse">
<stop stop-color="#04FDEE"/>
<stop offset="1" stop-color="#8A31C8"/>
</linearGradient>
<linearGradient id="paint3_linear_1_475" x1="152.677" y1="34.5951" x2="149.466" y2="120.538" gradientUnits="userSpaceOnUse">
<stop stop-color="#04FDEE"/>
<stop offset="1" stop-color="#8A31C8"/>
</linearGradient>
<linearGradient id="paint4_linear_1_475" x1="152.677" y1="34.0782" x2="149.466" y2="120.021" gradientUnits="userSpaceOnUse">
<stop stop-color="#04FDEE"/>
<stop offset="1" stop-color="#8A31C8"/>
</linearGradient>
<linearGradient id="paint5_linear_1_475" x1="152.677" y1="33.5611" x2="149.466" y2="119.504" gradientUnits="userSpaceOnUse">
<stop stop-color="#04FDEE"/>
<stop offset="1" stop-color="#8A31C8"/>
</linearGradient>
<linearGradient id="paint6_linear_1_475" x1="152.677" y1="33.0443" x2="149.466" y2="118.987" gradientUnits="userSpaceOnUse">
<stop stop-color="#04FDEE"/>
<stop offset="1" stop-color="#8A31C8"/>
</linearGradient>
<linearGradient id="paint7_linear_1_475" x1="152.677" y1="32.5275" x2="149.466" y2="118.47" gradientUnits="userSpaceOnUse">
<stop stop-color="#04FDEE"/>
<stop offset="1" stop-color="#8A31C8"/>
</linearGradient>
<linearGradient id="paint8_linear_1_475" x1="152.677" y1="32.0106" x2="149.466" y2="117.953" gradientUnits="userSpaceOnUse">
<stop stop-color="#04FDEE"/>
<stop offset="1" stop-color="#8A31C8"/>
</linearGradient>
<linearGradient id="paint9_linear_1_475" x1="152.677" y1="31.4935" x2="149.466" y2="117.436" gradientUnits="userSpaceOnUse">
<stop stop-color="#04FDEE"/>
<stop offset="1" stop-color="#8A31C8"/>
</linearGradient>
<linearGradient id="paint10_linear_1_475" x1="152.677" y1="30.9766" x2="149.466" y2="116.919" gradientUnits="userSpaceOnUse">
<stop stop-color="#04FDEE"/>
<stop offset="1" stop-color="#8A31C8"/>
</linearGradient>
<linearGradient id="paint11_linear_1_475" x1="152.677" y1="30.4598" x2="149.466" y2="116.402" gradientUnits="userSpaceOnUse">
<stop stop-color="#04FDEE"/>
<stop offset="1" stop-color="#8A31C8"/>
</linearGradient>
<linearGradient id="paint12_linear_1_475" x1="152.677" y1="29.9428" x2="149.466" y2="115.885" gradientUnits="userSpaceOnUse">
<stop stop-color="#04FDEE"/>
<stop offset="1" stop-color="#8A31C8"/>
</linearGradient>
<linearGradient id="paint13_linear_1_475" x1="152.677" y1="29.4259" x2="149.466" y2="115.368" gradientUnits="userSpaceOnUse">
<stop stop-color="#04FDEE"/>
<stop offset="1" stop-color="#8A31C8"/>
</linearGradient>
<linearGradient id="paint14_linear_1_475" x1="152.677" y1="28.909" x2="149.466" y2="114.852" gradientUnits="userSpaceOnUse">
<stop stop-color="#04FDEE"/>
<stop offset="1" stop-color="#8A31C8"/>
</linearGradient>
<linearGradient id="paint15_linear_1_475" x1="152.677" y1="28.3921" x2="149.466" y2="114.335" gradientUnits="userSpaceOnUse">
<stop stop-color="#04FDEE"/>
<stop offset="1" stop-color="#8A31C8"/>
</linearGradient>
<linearGradient id="paint16_linear_1_475" x1="152.677" y1="27.875" x2="149.466" y2="113.818" gradientUnits="userSpaceOnUse">
<stop stop-color="#04FDEE"/>
<stop offset="1" stop-color="#8A31C8"/>
</linearGradient>
<linearGradient id="paint17_linear_1_475" x1="152.677" y1="27.3582" x2="149.466" y2="113.301" gradientUnits="userSpaceOnUse">
<stop stop-color="#04FDEE"/>
<stop offset="1" stop-color="#8A31C8"/>
</linearGradient>
<linearGradient id="paint18_linear_1_475" x1="152.677" y1="26.8414" x2="149.466" y2="112.784" gradientUnits="userSpaceOnUse">
<stop stop-color="#04FDEE"/>
<stop offset="1" stop-color="#8A31C8"/>
</linearGradient>
<linearGradient id="paint19_linear_1_475" x1="152.677" y1="26.3246" x2="149.466" y2="112.267" gradientUnits="userSpaceOnUse">
<stop stop-color="#04FDEE"/>
<stop offset="1" stop-color="#8A31C8"/>
</linearGradient>
<linearGradient id="paint20_linear_1_475" x1="152.677" y1="25.8075" x2="149.466" y2="111.75" gradientUnits="userSpaceOnUse">
<stop stop-color="#04FDEE"/>
<stop offset="1" stop-color="#8A31C8"/>
</linearGradient>
<linearGradient id="paint21_linear_1_475" x1="152.677" y1="25.2906" x2="149.466" y2="111.233" gradientUnits="userSpaceOnUse">
<stop stop-color="#04FDEE"/>
<stop offset="1" stop-color="#8A31C8"/>
</linearGradient>
<linearGradient id="paint22_linear_1_475" x1="152.677" y1="24.7738" x2="149.466" y2="110.716" gradientUnits="userSpaceOnUse">
<stop stop-color="#04FDEE"/>
<stop offset="1" stop-color="#8A31C8"/>
</linearGradient>
<linearGradient id="paint23_linear_1_475" x1="152.677" y1="24.2569" x2="149.466" y2="110.199" gradientUnits="userSpaceOnUse">
<stop stop-color="#04FDEE"/>
<stop offset="1" stop-color="#8A31C8"/>
</linearGradient>
<linearGradient id="paint24_linear_1_475" x1="152.677" y1="23.7398" x2="149.466" y2="109.682" gradientUnits="userSpaceOnUse">
<stop stop-color="#04FDEE"/>
<stop offset="1" stop-color="#8A31C8"/>
</linearGradient>
<linearGradient id="paint25_linear_1_475" x1="152.677" y1="23.223" x2="149.466" y2="109.166" gradientUnits="userSpaceOnUse">
<stop stop-color="#04FDEE"/>
<stop offset="1" stop-color="#8A31C8"/>
</linearGradient>
<linearGradient id="paint26_linear_1_475" x1="152.677" y1="22.7061" x2="149.466" y2="108.649" gradientUnits="userSpaceOnUse">
<stop stop-color="#04FDEE"/>
<stop offset="1" stop-color="#8A31C8"/>
</linearGradient>
<linearGradient id="paint27_linear_1_475" x1="152.677" y1="22.1893" x2="149.466" y2="108.132" gradientUnits="userSpaceOnUse">
<stop stop-color="#04FDEE"/>
<stop offset="1" stop-color="#8A31C8"/>
</linearGradient>
<linearGradient id="paint28_linear_1_475" x1="152.677" y1="21.6722" x2="149.466" y2="107.615" gradientUnits="userSpaceOnUse">
<stop stop-color="#04FDEE"/>
<stop offset="1" stop-color="#8A31C8"/>
</linearGradient>
<linearGradient id="paint29_linear_1_475" x1="152.677" y1="21.1554" x2="149.466" y2="107.098" gradientUnits="userSpaceOnUse">
<stop stop-color="#04FDEE"/>
<stop offset="1" stop-color="#8A31C8"/>
</linearGradient>
<linearGradient id="paint30_linear_1_475" x1="152.677" y1="20.6385" x2="149.466" y2="106.581" gradientUnits="userSpaceOnUse">
<stop stop-color="#04FDEE"/>
<stop offset="1" stop-color="#8A31C8"/>
</linearGradient>
<linearGradient id="paint31_linear_1_475" x1="152.677" y1="20.1214" x2="149.466" y2="106.064" gradientUnits="userSpaceOnUse">
<stop stop-color="#04FDEE"/>
<stop offset="1" stop-color="#8A31C8"/>
</linearGradient>
<linearGradient id="paint32_linear_1_475" x1="152.677" y1="19.6046" x2="149.466" y2="105.547" gradientUnits="userSpaceOnUse">
<stop stop-color="#04FDEE"/>
<stop offset="1" stop-color="#8A31C8"/>
</linearGradient>
<linearGradient id="paint33_linear_1_475" x1="152.677" y1="19.0877" x2="149.466" y2="105.03" gradientUnits="userSpaceOnUse">
<stop stop-color="#04FDEE"/>
<stop offset="1" stop-color="#8A31C8"/>
</linearGradient>
<linearGradient id="paint34_linear_1_475" x1="152.677" y1="18.571" x2="149.466" y2="104.513" gradientUnits="userSpaceOnUse">
<stop stop-color="#04FDEE"/>
<stop offset="1" stop-color="#8A31C8"/>
</linearGradient>
<linearGradient id="paint35_linear_1_475" x1="152.677" y1="18.0538" x2="149.466" y2="103.996" gradientUnits="userSpaceOnUse">
<stop stop-color="#04FDEE"/>
<stop offset="1" stop-color="#8A31C8"/>
</linearGradient>
<linearGradient id="paint36_linear_1_475" x1="152.677" y1="17.537" x2="149.466" y2="103.48" gradientUnits="userSpaceOnUse">
<stop stop-color="#04FDEE"/>
<stop offset="1" stop-color="#8A31C8"/>
</linearGradient>
<linearGradient id="paint37_linear_1_475" x1="152.677" y1="17.0201" x2="149.466" y2="102.963" gradientUnits="userSpaceOnUse">
<stop stop-color="#04FDEE"/>
<stop offset="1" stop-color="#8A31C8"/>
</linearGradient>
<linearGradient id="paint38_linear_1_475" x1="152.677" y1="16.5033" x2="149.466" y2="102.446" gradientUnits="userSpaceOnUse">
<stop stop-color="#04FDEE"/>
<stop offset="1" stop-color="#8A31C8"/>
</linearGradient>
<linearGradient id="paint39_linear_1_475" x1="152.677" y1="15.9862" x2="149.466" y2="101.929" gradientUnits="userSpaceOnUse">
<stop stop-color="#04FDEE"/>
<stop offset="1" stop-color="#8A31C8"/>
</linearGradient>
<linearGradient id="paint40_linear_1_475" x1="152.677" y1="15.4693" x2="149.466" y2="101.412" gradientUnits="userSpaceOnUse">
<stop stop-color="#04FDEE"/>
<stop offset="1" stop-color="#8A31C8"/>
</linearGradient>
<linearGradient id="paint41_linear_1_475" x1="152.677" y1="14.9525" x2="149.466" y2="100.895" gradientUnits="userSpaceOnUse">
<stop stop-color="#04FDEE"/>
<stop offset="1" stop-color="#8A31C8"/>
</linearGradient>
<linearGradient id="paint42_linear_1_475" x1="152.677" y1="14.4356" x2="149.466" y2="100.378" gradientUnits="userSpaceOnUse">
<stop stop-color="#04FDEE"/>
<stop offset="1" stop-color="#8A31C8"/>
</linearGradient>
<linearGradient id="paint43_linear_1_475" x1="152.677" y1="13.9185" x2="149.466" y2="99.8611" gradientUnits="userSpaceOnUse">
<stop stop-color="#04FDEE"/>
<stop offset="1" stop-color="#8A31C8"/>
</linearGradient>
<linearGradient id="paint44_linear_1_475" x1="152.677" y1="13.4017" x2="149.466" y2="99.3442" gradientUnits="userSpaceOnUse">
<stop stop-color="#04FDEE"/>
<stop offset="1" stop-color="#8A31C8"/>
</linearGradient>
<linearGradient id="paint45_linear_1_475" x1="152.677" y1="12.8849" x2="149.466" y2="98.8274" gradientUnits="userSpaceOnUse">
<stop stop-color="#04FDEE"/>
<stop offset="1" stop-color="#8A31C8"/>
</linearGradient>
<linearGradient id="paint46_linear_1_475" x1="152.677" y1="12.3681" x2="149.466" y2="98.3106" gradientUnits="userSpaceOnUse">
<stop stop-color="#04FDEE"/>
<stop offset="1" stop-color="#8A31C8"/>
</linearGradient>
<linearGradient id="paint47_linear_1_475" x1="152.677" y1="11.8509" x2="149.466" y2="97.7935" gradientUnits="userSpaceOnUse">
<stop stop-color="#04FDEE"/>
<stop offset="1" stop-color="#8A31C8"/>
</linearGradient>
<linearGradient id="paint48_linear_1_475" x1="152.677" y1="11.3341" x2="149.466" y2="97.2766" gradientUnits="userSpaceOnUse">
<stop stop-color="#04FDEE"/>
<stop offset="1" stop-color="#8A31C8"/>
</linearGradient>
<linearGradient id="paint49_linear_1_475" x1="152.677" y1="10.8173" x2="149.466" y2="96.7598" gradientUnits="userSpaceOnUse">
<stop stop-color="#04FDEE"/>
<stop offset="1" stop-color="#8A31C8"/>
</linearGradient>
<linearGradient id="paint50_linear_1_475" x1="152.677" y1="10.3004" x2="149.466" y2="96.2429" gradientUnits="userSpaceOnUse">
<stop stop-color="#04FDEE"/>
<stop offset="1" stop-color="#8A31C8"/>
</linearGradient>
<linearGradient id="paint51_linear_1_475" x1="152.677" y1="9.78333" x2="149.466" y2="95.7258" gradientUnits="userSpaceOnUse">
<stop stop-color="#04FDEE"/>
<stop offset="1" stop-color="#8A31C8"/>
</linearGradient>
<linearGradient id="paint52_linear_1_475" x1="152.677" y1="9.26642" x2="149.466" y2="95.209" gradientUnits="userSpaceOnUse">
<stop stop-color="#04FDEE"/>
<stop offset="1" stop-color="#8A31C8"/>
</linearGradient>
</defs>
</svg>
