<svg width="412" height="192" viewBox="0 0 412 192" fill="none" xmlns="http://www.w3.org/2000/svg">
<path d="M410.229 57.6855L410.536 102.105L271.327 190.998L271.948 145.931L410.229 57.6855Z" stroke="#7895FF" stroke-opacity="0.53" stroke-width="1.2" stroke-miterlimit="10" stroke-linecap="square" stroke-linejoin="round"/>
<path d="M340.473 57.6657L305.823 79.6904L305.816 79.6827L270.635 57.4652L270.111 12.791L340.473 57.6657Z" stroke="#7895FF" stroke-opacity="0.53" stroke-width="1.2" stroke-miterlimit="10" stroke-linecap="square" stroke-linejoin="round"/>
<path d="M271.938 145.932L271.316 191L166.43 124.069L131.347 101.682L96.3616 79.3491L61.4111 57.0467V12.3418L271.938 145.932Z" stroke="#7895FF" stroke-opacity="0.53" stroke-width="1.2" stroke-miterlimit="10" stroke-linecap="square" stroke-linejoin="round"/>
<path d="M270.114 12.791L270.637 57.4651L235.847 79.6595L200.876 57.3418L270.114 12.791Z" stroke="#7895FF" stroke-opacity="0.53" stroke-width="1.2" stroke-miterlimit="10" stroke-linecap="square" stroke-linejoin="round"/>
<path d="M166.428 124.073L166.414 124.088L62.0374 190.548L61.9746 145.936L131.345 101.686L166.428 124.073Z" stroke="#7895FF" stroke-opacity="0.53" stroke-width="1.2" stroke-miterlimit="10" stroke-linecap="square" stroke-linejoin="round"/>
<path d="M61.9763 145.919L62.0391 190.532L-78 101.214V56.6172L61.9763 145.919Z" stroke="#7895FF" stroke-opacity="0.53" stroke-width="1.2" stroke-miterlimit="10" stroke-linecap="square" stroke-linejoin="round"/>
<path d="M61.4159 12.3418V57.0468L26.6329 79.1795L-8.4502 56.8308L61.4159 12.3418Z" stroke="#7895FF" stroke-opacity="0.53" stroke-width="1.2" stroke-miterlimit="10" stroke-linecap="square" stroke-linejoin="round"/>
<path d="M200.878 57.3327L235.849 79.6504L270.8 101.953L305.827 79.689L340.477 57.6642L270.116 12.782L200.878 57.3327ZM165.886 34.9686L270.165 -31.5991L410.218 57.6642L271.944 145.94L61.4249 12.3578L-8.45507 56.8391L26.628 79.2031L61.6553 101.513L96.3615 79.3651L131.354 101.729L61.9763 145.979L-78 56.6849L60.8805 -32L165.886 34.9686Z" stroke="#7895FF" stroke-opacity="0.53" stroke-width="1.2" stroke-miterlimit="10" stroke-linecap="square" stroke-linejoin="round"/>
<path d="M200.871 57.3489L165.872 35.0156" stroke="#7895FF" stroke-opacity="0.53" stroke-width="1.2" stroke-miterlimit="10" stroke-linecap="square" stroke-linejoin="round"/>
</svg>
