<svg width="48" height="38" viewBox="0 0 48 38" fill="none" xmlns="http://www.w3.org/2000/svg">
<path d="M43.3346 4.59934L47.0525 1.05769V0.282471H34.1727L24.9934 23.0325L14.5502 0.282471H1.0453V1.05769L5.38839 6.26383C5.81163 6.64854 6.03296 7.21111 5.97666 7.77754V28.2367C6.11062 28.9733 5.86987 29.7311 5.34956 30.2666L0.457031 36.1706V36.9362H14.3289V36.161L9.43637 30.2666C8.90635 29.7292 8.6559 28.9849 8.76268 28.2367V10.5401L20.9396 36.9459H22.355L32.8254 10.5401V31.5754C32.8254 32.1302 32.8254 32.2443 32.4604 32.6077L28.6939 36.2364V37.0135H46.9671V36.2383L43.3365 32.6986C43.0181 32.4589 42.8531 32.0568 42.9211 31.6663V5.63167C42.8531 5.23923 43.0162 4.83712 43.3346 4.59934Z" fill="#F1F1F1"/>
</svg>
