<svg width="1238" height="849" viewBox="0 0 1238 849" fill="none" xmlns="http://www.w3.org/2000/svg">
<g opacity="0.6">
<path d="M1230.92 342.626L1236.88 342.588C1236.87 340.386 1235.64 338.371 1233.69 337.346C1231.74 336.321 1229.39 336.452 1227.57 337.688L1230.92 342.626ZM1232 509.349L1235.35 514.287C1237 513.168 1237.98 511.302 1237.97 509.31L1232 509.349ZM740.169 842.996L734.203 842.918C734.174 845.141 735.383 847.196 737.341 848.25C739.298 849.304 741.679 849.182 743.519 847.934L740.169 842.996ZM742.364 673.842L739.015 668.904C737.4 669.998 736.423 671.814 736.397 673.765L742.364 673.842ZM984.484 342.549L987.823 347.494C989.465 346.386 990.449 344.535 990.451 342.554C990.453 340.573 989.471 338.72 987.831 337.609L984.484 342.549ZM862.062 425.216L857.514 429.078C859.483 431.396 862.881 431.863 865.401 430.161L862.062 425.216ZM862.038 425.187L866.586 421.324C866.23 420.905 865.818 420.538 865.362 420.232L862.038 425.187ZM737.742 341.797L731.776 341.862C731.797 343.828 732.786 345.656 734.418 346.752L737.742 341.797ZM735.893 174.119L739.24 169.179C737.401 167.934 735.024 167.812 733.068 168.863C731.112 169.914 729.902 171.965 729.926 174.185L735.893 174.119ZM742.354 673.846L748.32 673.924C748.346 671.912 747.357 670.023 745.689 668.899L742.354 673.846ZM740.159 843L736.811 847.939C738.628 849.171 740.974 849.305 742.92 848.29C744.866 847.274 746.097 845.272 746.126 843.077L740.159 843ZM-1.44678 340.228H-7.4136C-7.4136 342.207 -6.43277 344.057 -4.79504 345.167L-1.44678 340.228ZM-1.44678 172.435L1.88852 167.488C0.0592957 166.254 -2.30106 166.131 -4.24875 167.167C-6.19641 168.203 -7.4136 170.229 -7.4136 172.435H-1.44678ZM735.922 174.119L741.889 174.053C741.865 171.852 740.63 169.843 738.678 168.827C736.726 167.81 734.372 167.951 732.555 169.193L735.922 174.119ZM737.772 341.797L741.119 346.736C742.777 345.613 743.76 343.733 743.738 341.731L737.772 341.797ZM614.857 425.1L611.509 430.039C613.53 431.409 616.183 431.409 618.204 430.039L614.857 425.1ZM491.301 341.333L487.934 336.407C486.303 337.522 485.33 339.37 485.334 341.345C485.338 343.319 486.318 345.164 487.952 346.272L491.301 341.333ZM369.602 591.793L374.145 595.661C375.244 594.37 375.742 592.672 375.514 590.991C375.286 589.31 374.354 587.806 372.95 586.854L369.602 591.793ZM369.552 591.851L372.895 596.794C373.342 596.491 373.746 596.13 374.096 595.719L369.552 591.851ZM0.783691 841.298L-5.18314 841.306C-5.18021 843.512 -3.96002 845.537 -2.01059 846.57C-0.0611572 847.603 2.29932 847.477 4.12683 846.24L0.783691 841.298ZM0.561768 673.852L-2.78549 668.912C-4.42612 670.024 -5.40768 671.878 -5.40506 673.86L0.561768 673.852ZM245.651 507.766L249 502.827C246.978 501.457 244.326 501.457 242.304 502.827L245.651 507.766ZM0.543396 673.793L6.51022 673.785C6.5076 671.809 5.52679 669.962 3.89102 668.854L0.543396 673.793ZM0.765259 841.239L-2.58176 846.179C-0.752167 847.418 1.61276 847.545 3.56448 846.508C5.51617 845.472 6.73502 843.441 6.73209 841.231L0.765259 841.239ZM-494 505.999H-499.967C-499.967 507.979 -498.985 509.829 -497.347 510.939L-494 505.999ZM-494 338.611L-490.652 333.672C-492.481 332.433 -494.844 332.305 -496.795 333.34C-498.747 334.375 -499.967 336.403 -499.967 338.611H-494ZM-1.46603 172.435H4.50079C4.50079 170.227 3.28171 168.2 1.33163 167.165C-0.618408 166.13 -2.98068 166.256 -4.80936 167.493L-1.46603 172.435ZM-1.46603 340.228L1.87558 345.172C3.51715 344.062 4.50079 342.21 4.50079 340.228H-1.46603ZM-124.356 423.3L-127.7 428.242C-125.681 429.608 -123.034 429.609 -121.015 428.243L-124.356 423.3ZM-248.307 339.418L-251.65 334.476C-253.29 335.585 -254.273 337.437 -254.273 339.417C-254.274 341.398 -253.291 343.25 -251.651 344.36L-248.307 339.418ZM491.29 341.297L487.922 336.371C486.292 337.485 485.319 339.334 485.323 341.308C485.327 343.283 486.307 345.127 487.941 346.235L491.29 341.297ZM738.327 508.771L734.979 513.71C736.997 515.079 739.645 515.081 741.666 513.716L738.327 508.771ZM984.502 342.541L987.841 347.486C989.482 346.378 990.467 344.527 990.468 342.546C990.47 340.565 989.489 338.713 987.849 337.602L984.502 342.541ZM735.911 174.082L739.258 169.143C737.229 167.768 734.567 167.774 732.543 169.156L735.911 174.082ZM367.66 257.357L364.313 262.296C366.335 263.666 368.988 263.666 371.009 262.295L367.66 257.357ZM736.083 7.50483L739.429 2.56404C737.407 1.1951 734.755 1.19607 732.734 2.56649L736.083 7.50483ZM1230.9 342.541L1234.25 347.479C1235.89 346.368 1236.87 344.518 1236.86 342.539C1236.86 340.56 1235.88 338.71 1234.24 337.6L1230.9 342.541ZM742.371 673.873L739.036 678.82C741.057 680.183 743.703 680.179 745.72 678.811L742.371 673.873ZM-1.40466 172.49L1.93057 167.543C-0.0879211 166.182 -2.73062 166.184 -4.74713 167.547L-1.40466 172.49ZM-248.294 339.444L-251.637 334.501C-253.277 335.611 -254.261 337.462 -254.261 339.443C-254.262 341.423 -253.279 343.275 -251.639 344.385L-248.294 339.444ZM-0.59079 507.122L-3.93561 512.063C-1.91412 513.431 0.737 513.43 2.75751 512.06L-0.59079 507.122ZM122.028 423.992L125.38 419.055C123.358 417.682 120.703 417.681 118.68 419.053L122.028 423.992ZM245.658 507.932L249.005 512.871C250.642 511.762 251.624 509.913 251.625 507.935C251.625 505.956 250.646 504.106 249.009 502.995L245.658 507.932ZM0.543304 674.017L-2.80411 678.956C-0.782867 680.326 1.86899 680.326 3.89035 678.957L0.543304 674.017ZM-494 338.865L-497.35 333.928C-498.987 335.038 -499.967 336.888 -499.967 338.867C-499.966 340.845 -498.985 342.695 -497.347 343.805L-494 338.865ZM-3.32797 6L0.0188904 1.06021C-2.0033 -0.309891 -4.65634 -0.309115 -6.67773 1.06217L-3.32797 6ZM487.918 346.294L492.857 349.642L499.553 339.764L494.615 336.416L487.918 346.294ZM370.96 252.592L366.021 249.244L359.325 259.122L364.264 262.47L370.96 252.592ZM1224.95 342.665L1226.03 509.388L1237.97 509.31L1236.88 342.588L1224.95 342.665ZM1228.65 504.411L736.819 838.058L743.519 847.934L1235.35 514.287L1228.65 504.411ZM746.135 843.073L748.33 673.92L736.397 673.765L734.203 842.918L746.135 843.073ZM745.712 678.781L1234.26 347.565L1227.57 337.688L739.015 668.904L745.712 678.781ZM981.145 337.604L858.723 420.271L865.401 430.161L987.823 347.494L981.145 337.604ZM866.61 421.353L866.586 421.324L857.49 429.049L857.514 429.078L866.61 421.353ZM865.362 420.232L741.066 336.842L734.418 346.752L858.713 430.142L865.362 420.232ZM743.708 341.731L741.859 174.053L729.926 174.185L731.776 341.862L743.708 341.731ZM732.546 179.059L981.137 347.489L987.831 337.609L739.24 169.179L732.546 179.059ZM736.387 673.769L734.193 842.923L746.126 843.077L748.32 673.924L736.387 673.769ZM4.52005 340.228V172.435H-7.4136V340.228H4.52005ZM-4.78207 177.383L739.019 678.794L745.689 668.899L1.88852 167.488L-4.78207 177.383ZM729.956 174.185L731.805 341.862L743.738 341.731L741.889 174.053L729.956 174.185ZM734.424 336.857L611.509 420.16L618.204 430.039L741.119 346.736L734.424 336.857ZM618.205 420.161L494.649 336.395L487.952 346.272L611.509 430.039L618.205 420.161ZM494.668 346.259L739.29 179.045L732.555 169.193L487.934 336.407L494.668 346.259ZM365.058 587.925L365.009 587.983L374.096 595.719L374.145 595.661L365.058 587.925ZM366.209 586.909L-2.55945 836.356L4.12683 846.24L372.895 596.794L366.209 586.909ZM6.75052 841.29L6.52859 673.844L-5.40506 673.86L-5.18314 841.306L6.75052 841.29ZM3.90906 678.792L248.999 512.706L242.304 502.827L-2.78549 668.912L3.90906 678.792ZM242.303 512.705L366.253 596.732L372.95 586.854L249 502.827L242.303 512.705ZM-5.42343 673.801L-5.20157 841.247L6.73209 841.231L6.51022 673.785L-5.42343 673.801ZM4.11227 836.299L-490.653 501.06L-497.347 510.939L-2.58176 846.179L4.11227 836.299ZM-488.033 505.999V338.611H-499.967V505.999H-488.033ZM-497.348 343.551L-2.80426 678.732L3.89102 668.854L-490.652 333.672L-497.348 343.551ZM-7.43286 172.435V340.228H4.50079V172.435H-7.43286ZM-4.80765 335.285L-127.698 418.357L-121.015 428.243L1.87558 345.172L-4.80765 335.285ZM-121.012 418.358L-244.962 334.476L-251.651 344.36L-127.7 428.242L-121.012 418.358ZM-244.963 344.36L1.87726 177.377L-4.80936 167.493L-251.65 334.476L-244.963 344.36ZM987.849 337.602L739.258 169.143L732.563 179.022L981.154 347.481L987.849 337.602ZM732.543 169.156L487.922 336.371L494.657 346.223L739.278 179.008L732.543 169.156ZM371.009 262.295L739.432 12.4432L732.734 2.56649L364.311 252.418L371.009 262.295ZM732.738 12.4456L1227.55 347.482L1234.24 337.6L739.429 2.56404L732.738 12.4456ZM1227.55 337.603L739.022 668.934L745.72 678.811L1234.25 347.479L1227.55 337.603ZM745.706 668.925L1.93057 167.543L-4.7399 177.438L739.036 678.82L745.706 668.925ZM-4.74713 167.547L-251.637 334.501L-244.952 344.387L1.93777 177.433L-4.74713 167.547ZM2.75751 512.06L125.376 428.931L118.68 419.053L-3.93906 502.183L2.75751 512.06ZM118.676 428.928L242.306 512.868L249.009 502.995L125.38 419.055L118.676 428.928ZM242.311 502.992L-2.80371 669.077L3.89035 678.957L249.005 512.871L242.311 502.992ZM3.89075 669.078L-490.653 333.926L-497.347 343.805L-2.80411 678.956L3.89075 669.078ZM-490.65 343.803L0.0217896 10.9378L-6.67773 1.06217L-497.35 333.928L-490.65 343.803ZM-6.67487 10.9398L364.313 262.296L371.007 252.417L0.0188904 1.06021L-6.67487 10.9398ZM494.615 336.416L370.96 252.592L364.264 262.47L487.918 346.294L494.615 336.416ZM743.508 838.061L1.90149 335.289L-4.79504 345.167L736.811 847.939L743.508 838.061ZM487.941 346.235L734.979 513.71L741.675 503.832L494.638 336.358L487.941 346.235ZM741.666 513.716L987.841 347.486L981.162 337.596L734.988 503.826L741.666 513.716ZM-251.639 344.385L-3.93561 512.063L2.75406 502.18L-244.949 334.503L-251.639 344.385Z" fill="white" fill-opacity="0.06"/>
</g>
</svg>
