<svg width="33" height="33" viewBox="0 0 33 33" fill="none" xmlns="http://www.w3.org/2000/svg">
<path fill-rule="evenodd" clip-rule="evenodd" d="M33 16.5C33 25.6121 25.6121 33 16.5 33C7.38788 33 0 25.6121 0 16.5C0 7.38788 7.38788 0 16.5 0C25.6121 0 33 7.38788 33 16.5ZM17.0913 12.1811C15.4866 12.848 12.2788 14.2299 7.469 16.3254C6.688 16.6361 6.27825 16.94 6.24113 17.237C6.17788 17.7402 6.80762 17.9382 7.66288 18.2064C7.77975 18.2435 7.90075 18.2806 8.0245 18.3219C8.86738 18.5955 10.0004 18.9159 10.5889 18.9282C11.1238 18.9392 11.7205 18.7192 12.3791 18.2682C16.8726 15.2336 19.1922 13.7005 19.338 13.6675C19.4411 13.6441 19.5841 13.6139 19.6804 13.7005C19.7766 13.7857 19.767 13.948 19.7574 13.992C19.6941 14.2574 17.2274 16.5522 15.9486 17.7402C15.5499 18.1101 15.268 18.3727 15.2103 18.4333C15.081 18.5666 14.949 18.6945 14.8225 18.8169C14.0387 19.5704 13.453 20.1369 14.8555 21.0609C15.5293 21.505 16.0682 21.8721 16.6059 22.2379C17.193 22.638 17.7788 23.0367 18.5378 23.5345C18.7303 23.661 18.9145 23.7916 19.0946 23.9195C19.778 24.4076 20.3926 24.8449 21.1516 24.7761C21.5916 24.7349 22.0481 24.321 22.2791 23.0849C22.825 20.1616 23.9002 13.8311 24.1491 11.2214C24.1643 11.0047 24.155 10.787 24.1216 10.5724C24.1016 10.399 24.0172 10.2395 23.8851 10.1255C23.6885 9.96462 23.3832 9.93025 23.2458 9.933C22.6256 9.944 21.6741 10.2754 17.0913 12.1811Z" fill="#E4ECF7"/>
</svg>
