<svg width="48" height="40" viewBox="0 0 48 40" fill="none" xmlns="http://www.w3.org/2000/svg">
<path d="M23.5025 10.9548L23.6038 12.6195L21.914 12.4157C15.763 11.6343 10.3893 8.98425 5.82674 4.53355L3.59615 2.32519L3.0216 3.95598C1.80492 7.59128 2.58225 11.4304 5.117 14.0125C6.46888 15.4395 6.1647 15.6433 3.83273 14.7939C3.0216 14.5221 2.31187 14.3183 2.24428 14.4202C2.0077 14.658 2.81882 17.7497 3.46096 18.9728C4.33968 20.6716 6.13091 22.3363 8.09112 23.3216L9.74716 24.103L7.78695 24.137C5.89433 24.137 5.82674 24.171 6.02952 24.8845C6.70545 27.0928 9.3754 29.4371 12.3495 30.4563L14.4449 31.1698L12.6199 32.257C9.91615 33.8198 6.73925 34.7032 3.56235 34.7711C2.0415 34.8051 0.791016 34.941 0.791016 35.0429C0.791016 35.3827 4.91422 37.2853 7.3138 38.0327C14.5125 40.2411 23.0631 39.2898 29.4845 35.5186C34.0471 32.8346 38.6096 27.5005 40.7388 22.3363C41.8879 19.5844 43.037 14.5561 43.037 12.1439C43.037 10.5811 43.1384 10.3772 45.031 8.5086C46.1463 7.42141 47.194 6.23229 47.3968 5.89254C47.7348 5.24702 47.701 5.24702 45.9773 5.82459C43.1046 6.84384 42.699 6.70794 44.1185 5.17907C45.1662 4.09188 46.4167 2.12134 46.4167 1.54377C46.4167 1.44184 45.9097 1.61172 45.3352 1.91749C44.7268 2.25724 43.375 2.76686 42.3611 3.07263L40.536 3.6502L38.88 2.52904C37.9675 1.91749 36.6832 1.23799 36.0073 1.03415C34.2836 0.558498 31.6475 0.626447 30.0928 1.17004C25.8682 2.69891 23.1983 6.63999 23.5025 10.9548Z" fill="#F1F1F1"/>
</svg>
