<svg width="33" height="33" viewBox="0 0 33 33" fill="none" xmlns="http://www.w3.org/2000/svg">
<path d="M16.5 0C7.38817 0 0 7.38817 0 16.5C0 25.6118 7.38817 33 16.5 33C25.6118 33 33 25.6118 33 16.5C33 7.38817 25.6118 0 16.5 0ZM24.4296 12.4376C24.4406 12.6107 24.4406 12.7912 24.4406 12.968C24.4406 18.3747 20.323 24.6027 12.7985 24.6027C10.4782 24.6027 8.32734 23.9287 6.51529 22.7685C6.84676 22.8054 7.16351 22.8201 7.50234 22.8201C9.41752 22.8201 11.178 22.1719 12.5813 21.0743C10.7839 21.0375 9.27388 19.8589 8.75826 18.2384C9.38806 18.3305 9.95525 18.3305 10.6035 18.1647C9.67801 17.9767 8.84619 17.4741 8.24932 16.7423C7.65246 16.0105 7.32735 15.0946 7.32924 14.1502V14.0987C7.87065 14.4044 8.50781 14.5922 9.17444 14.618C8.61404 14.2445 8.15446 13.7385 7.83644 13.1449C7.51842 12.5512 7.35179 11.8883 7.35134 11.2148C7.35134 10.4525 7.55022 9.75636 7.90748 9.15234C8.93469 10.4169 10.2165 11.4511 11.6696 12.1878C13.1227 12.9245 14.7145 13.3472 16.3416 13.4283C15.7634 10.6477 17.8406 8.39732 20.3377 8.39732C21.5163 8.39732 22.577 8.89085 23.3247 9.68638C24.2491 9.51328 25.133 9.16708 25.9212 8.70301C25.6155 9.64955 24.9747 10.4488 24.1239 10.9533C24.9489 10.865 25.7444 10.6366 26.481 10.3162C25.9249 11.1338 25.2288 11.8594 24.4296 12.4376Z" fill="#E4ECF7"/>
</svg>
